<svg width="150" height="150" viewBox="0 0 150 150" fill="none" xmlns="http://www.w3.org/2000/svg">
<path d="M0 10C0 4.47715 4.47715 0 10 0H100C127.614 0 150 22.3858 150 50V140C150 145.523 145.523 150 140 150H10C4.47715 150 0 145.523 0 140V10Z" fill="#373737"/>
<path d="M61.7 48.568H74.436V91H65.092V57.528H61.7V48.568ZM81.46 86.392C81.46 85.0693 81.9293 83.96 82.868 83.064C83.8493 82.168 84.916 81.72 86.068 81.72C87.1347 81.72 88.1373 82.168 89.076 83.064C90.0573 83.96 90.548 85.0693 90.548 86.392C90.548 87.8 90.0573 88.9307 89.076 89.784C88.1373 90.5947 87.1347 91 86.068 91C84.916 91 83.8493 90.5947 82.868 89.784C81.9293 88.9307 81.46 87.8 81.46 86.392Z" fill="#F1F1F1"/>
</svg>
