<svg width="336" height="394" viewBox="0 0 336 394" fill="none" xmlns="http://www.w3.org/2000/svg">
<path d="M0 10C0 4.47716 4.47715 0 10 0H221C226.523 0 231 4.47715 231 10V184.5C231 248.289 179.289 300 115.5 300C51.7111 300 0 248.289 0 184.5V10Z" fill="#373737"/>
<path d="M89.5565 157.118C87.1804 154.983 88.419 155.585 82.6878 154.206C80.0875 153.58 77.8016 152.375 75.7344 150.933L63.3287 178.27C62.1283 180.917 64.3704 183.792 67.5478 183.684L81.955 183.19L91.8643 192.597C94.0518 194.672 97.8908 194.025 99.0912 191.378L113.323 160.016C110.359 161.5 107.07 162.37 103.668 162.37C98.3365 162.37 93.3272 160.505 89.5565 157.118ZM167.671 178.27L155.266 150.933C153.198 152.378 150.913 153.58 148.312 154.206C142.551 155.592 143.814 154.988 141.443 157.118C137.673 160.505 132.661 162.37 127.329 162.37C123.927 162.37 120.638 161.498 117.674 160.016L131.906 191.378C133.106 194.025 136.948 194.672 139.133 192.597L149.045 183.19L163.452 183.684C166.63 183.792 168.872 180.914 167.671 178.27ZM134.914 151.557C139.092 147.736 139.57 148.065 145.52 146.608C149.318 145.676 152.288 142.961 153.305 139.486C155.35 132.507 154.82 133.349 160.401 128.243C163.182 125.699 164.267 121.991 163.25 118.516C161.207 111.542 161.205 112.515 163.25 105.533C164.267 102.058 163.182 98.3497 160.401 95.8062C154.82 90.6995 155.35 91.5399 153.305 84.5631C152.288 81.0882 149.318 78.3726 145.52 77.4413C137.897 75.5711 138.816 76.0601 133.23 70.951C130.449 68.4075 126.394 67.4122 122.596 68.3436C114.975 70.2113 116.039 70.2137 108.404 68.3436C104.606 67.4122 100.551 68.405 97.7705 70.951C92.1897 76.0577 93.1084 75.5711 85.4823 77.4413C81.6843 78.3726 78.7148 81.0882 77.6977 84.5631C75.6551 91.5399 76.1828 90.6995 70.602 95.8062C67.8212 98.3497 66.7329 102.058 67.7528 105.533C69.7954 112.502 69.7981 111.529 67.7528 118.513C66.7357 121.988 67.8212 125.697 70.602 128.243C76.1828 133.349 75.6524 132.507 77.6977 139.486C78.7148 142.961 81.6843 145.676 85.4823 146.608C91.6018 148.107 92.0584 147.871 96.0861 151.557C99.7037 154.867 105.339 155.46 109.687 152.987C111.425 151.995 113.442 151.469 115.501 151.469C117.561 151.469 119.577 151.995 121.316 152.987C125.661 155.46 131.296 154.867 134.914 151.557ZM89.7042 111.244C89.7042 98.2121 101.254 87.6473 115.5 87.6473C129.746 87.6473 141.296 98.2121 141.296 111.244C141.296 124.276 129.746 134.841 115.5 134.841C101.254 134.841 89.7042 124.276 89.7042 111.244Z" fill="#F1F1F1"/>
<circle cx="208" cy="266" r="128" fill="#FF9797"/>
<path d="M138.27 236.88H155.95V241.36H142.95V249.56H154.27V254.04H142.95V266H138.27V236.88ZM164.593 249.08L164.993 253.88L164.833 253.2C165.313 252.187 165.966 251.32 166.793 250.6C167.646 249.853 168.513 249.293 169.393 248.92C170.273 248.52 170.993 248.32 171.553 248.32L171.353 252.8C170.073 252.693 168.953 252.933 167.993 253.52C167.059 254.08 166.326 254.827 165.793 255.76C165.286 256.693 165.033 257.68 165.033 258.72V266H160.553V249.08H164.593ZM176.139 249.08H180.619V266H176.139V249.08ZM175.939 243.04C175.939 242.347 176.205 241.773 176.739 241.32C177.299 240.867 177.899 240.64 178.539 240.64C179.179 240.64 179.752 240.867 180.259 241.32C180.792 241.773 181.059 242.347 181.059 243.04C181.059 243.733 180.792 244.307 180.259 244.76C179.752 245.187 179.179 245.4 178.539 245.4C177.899 245.4 177.299 245.173 176.739 244.72C176.205 244.267 175.939 243.707 175.939 243.04ZM194.844 266.44C192.844 266.44 191.137 266.053 189.724 265.28C188.31 264.507 187.23 263.44 186.484 262.08C185.737 260.693 185.364 259.133 185.364 257.4C185.364 255.693 185.79 254.16 186.644 252.8C187.497 251.44 188.644 250.36 190.084 249.56C191.55 248.733 193.164 248.32 194.924 248.32C197.244 248.32 199.15 249 200.644 250.36C202.164 251.693 203.177 253.587 203.684 256.04L190.044 260.64L189.004 258.12L199.644 254.32L198.724 254.84C198.43 254.04 197.95 253.347 197.284 252.76C196.644 252.173 195.737 251.88 194.564 251.88C193.63 251.88 192.804 252.107 192.084 252.56C191.364 252.987 190.79 253.6 190.364 254.4C189.964 255.173 189.764 256.093 189.764 257.16C189.764 258.253 189.99 259.213 190.444 260.04C190.897 260.867 191.51 261.507 192.284 261.96C193.057 262.387 193.937 262.6 194.924 262.6C195.617 262.6 196.284 262.48 196.924 262.24C197.564 262 198.164 261.68 198.724 261.28L200.764 264.6C199.884 265.16 198.91 265.613 197.844 265.96C196.804 266.28 195.804 266.44 194.844 266.44ZM212.132 249.08L212.532 252.72L212.372 252.24C212.958 251.067 213.825 250.133 214.972 249.44C216.145 248.72 217.532 248.36 219.132 248.36C220.732 248.36 222.052 248.827 223.092 249.76C224.132 250.693 224.665 251.92 224.692 253.44V266H220.212V255.04C220.185 254.187 219.945 253.507 219.492 253C219.038 252.467 218.318 252.187 217.332 252.16C216.425 252.16 215.612 252.44 214.892 253C214.172 253.533 213.598 254.28 213.172 255.24C212.772 256.173 212.572 257.253 212.572 258.48V266H208.092V249.08H212.132ZM237.785 266.44C236.185 266.44 234.758 266.067 233.505 265.32C232.252 264.573 231.265 263.507 230.545 262.12C229.825 260.733 229.465 259.12 229.465 257.28C229.465 255.387 229.852 253.773 230.625 252.44C231.398 251.107 232.452 250.093 233.785 249.4C235.145 248.68 236.665 248.32 238.345 248.32C239.572 248.32 240.745 248.56 241.865 249.04C242.985 249.493 243.878 250.16 244.545 251.04L244.465 252.56V234.8H248.905V266H244.425V262.2L244.865 263.28C244.012 264.187 242.985 264.947 241.785 265.56C240.612 266.147 239.278 266.44 237.785 266.44ZM239.225 262.64C240.105 262.64 240.878 262.493 241.545 262.2C242.238 261.907 242.825 261.493 243.305 260.96C243.812 260.4 244.185 259.747 244.425 259V255.4C244.212 254.707 243.852 254.093 243.345 253.56C242.865 253.027 242.265 252.613 241.545 252.32C240.825 252.027 240.052 251.88 239.225 251.88C238.265 251.88 237.385 252.107 236.585 252.56C235.812 253.013 235.185 253.64 234.705 254.44C234.225 255.24 233.985 256.16 233.985 257.2C233.985 258.213 234.225 259.133 234.705 259.96C235.185 260.787 235.825 261.44 236.625 261.92C237.425 262.4 238.292 262.64 239.225 262.64ZM260.164 266.36C258.884 266.36 257.657 266.133 256.484 265.68C255.337 265.227 254.364 264.56 253.564 263.68L255.484 261.16C256.231 261.88 256.964 262.413 257.684 262.76C258.431 263.08 259.137 263.24 259.804 263.24C260.311 263.24 260.764 263.187 261.164 263.08C261.591 262.947 261.924 262.747 262.164 262.48C262.431 262.213 262.564 261.853 262.564 261.4C262.564 260.867 262.377 260.453 262.004 260.16C261.631 259.84 261.151 259.587 260.564 259.4C259.977 259.187 259.364 258.987 258.724 258.8C257.257 258.347 256.164 257.68 255.444 256.8C254.724 255.92 254.364 254.907 254.364 253.76C254.364 252.88 254.591 252.04 255.044 251.24C255.497 250.413 256.191 249.733 257.124 249.2C258.057 248.667 259.231 248.4 260.644 248.4C261.924 248.4 263.031 248.547 263.964 248.84C264.924 249.107 265.817 249.573 266.644 250.24L264.924 252.92C264.444 252.467 263.871 252.12 263.204 251.88C262.564 251.613 261.977 251.467 261.444 251.44C260.964 251.413 260.537 251.48 260.164 251.64C259.791 251.773 259.484 251.973 259.244 252.24C259.031 252.507 258.924 252.813 258.924 253.16C258.897 253.693 259.071 254.12 259.444 254.44C259.844 254.76 260.351 255.013 260.964 255.2C261.577 255.387 262.191 255.587 262.804 255.8C263.631 256.04 264.364 256.373 265.004 256.8C265.644 257.227 266.137 257.747 266.484 258.36C266.857 258.947 267.044 259.68 267.044 260.56C267.044 261.573 266.791 262.533 266.284 263.44C265.777 264.32 265.017 265.027 264.004 265.56C262.991 266.093 261.711 266.36 260.164 266.36ZM183.053 276.88C185.266 276.88 187.159 277.253 188.733 278C190.306 278.747 191.506 279.813 192.333 281.2C193.186 282.587 193.613 284.267 193.613 286.24C193.613 287.387 193.426 288.533 193.053 289.68C192.706 290.827 192.146 291.867 191.372 292.8C190.626 293.733 189.613 294.493 188.333 295.08C187.079 295.64 185.533 295.92 183.693 295.92H179.493V306H174.813V276.88H183.053ZM183.693 291.4C184.706 291.4 185.559 291.227 186.253 290.88C186.946 290.533 187.479 290.093 187.853 289.56C188.253 289.027 188.533 288.48 188.693 287.92C188.879 287.333 188.973 286.813 188.973 286.36C188.973 285.88 188.893 285.36 188.733 284.8C188.573 284.213 188.306 283.667 187.933 283.16C187.559 282.627 187.039 282.2 186.373 281.88C185.706 281.533 184.853 281.36 183.813 281.36H179.493V291.4H183.693ZM198.346 289.08H202.826V306H198.346V289.08ZM198.146 283.04C198.146 282.347 198.412 281.773 198.946 281.32C199.506 280.867 200.106 280.64 200.746 280.64C201.386 280.64 201.959 280.867 202.466 281.32C202.999 281.773 203.266 282.347 203.266 283.04C203.266 283.733 202.999 284.307 202.466 284.76C201.959 285.187 201.386 285.4 200.746 285.4C200.106 285.4 199.506 285.173 198.946 284.72C198.412 284.267 198.146 283.707 198.146 283.04ZM222.971 304.44C222.224 305.053 221.304 305.547 220.211 305.92C219.144 306.267 218.064 306.44 216.971 306.44C215.104 306.44 213.464 306.08 212.051 305.36C210.637 304.613 209.531 303.587 208.731 302.28C207.957 300.947 207.571 299.36 207.571 297.52C207.571 295.68 207.984 294.093 208.811 292.76C209.664 291.427 210.771 290.413 212.131 289.72C213.517 289 214.984 288.64 216.531 288.64C217.944 288.64 219.197 288.84 220.291 289.24C221.384 289.613 222.331 290.133 223.131 290.8L220.891 293.72C220.464 293.373 219.904 293.053 219.211 292.76C218.544 292.44 217.784 292.28 216.931 292.28C216.024 292.28 215.197 292.507 214.451 292.96C213.731 293.413 213.144 294.04 212.691 294.84C212.264 295.613 212.051 296.507 212.051 297.52C212.051 298.48 212.277 299.36 212.731 300.16C213.184 300.96 213.811 301.6 214.611 302.08C215.411 302.533 216.331 302.76 217.371 302.76C218.037 302.76 218.651 302.667 219.211 302.48C219.797 302.267 220.304 301.987 220.731 301.64L222.971 304.44ZM227.564 306V274.8H232.044V306H227.564ZM236.244 294.64L243.964 306H238.764L233.284 297.2L236.244 294.64ZM230.684 300.92L230.244 296.6L240.524 288.68L243.244 291.08L230.684 300.92Z" fill="#F1F1F1"/>
</svg>
