<svg width="42" height="42" viewBox="0 0 42 42" fill="none" xmlns="http://www.w3.org/2000/svg">
<path d="M8.75 5.25C6.81625 5.25 5.25 6.81625 5.25 8.75V33.25C5.25 35.1838 6.81625 36.75 8.75 36.75H33.25C35.1838 36.75 36.75 35.1838 36.75 33.25V8.75C36.75 6.81625 35.1838 5.25 33.25 5.25H8.75ZM8.75 8.75H33.25V33.25H8.75V8.75ZM13.6138 11.0537C12.114 11.0537 11.2144 11.9553 11.2144 13.1558C11.2144 14.3563 12.1141 15.2544 13.4634 15.2544C14.9631 15.2544 15.8628 14.3563 15.8628 13.1558C15.8628 11.9553 14.963 11.0537 13.6138 11.0537ZM11.334 17.5V29.75H15.75V17.5H11.334ZM19.3936 17.5V29.75H23.8096V23.0542C23.8096 21.0609 25.2317 20.7744 25.6587 20.7744C26.0857 20.7744 27.2275 21.2027 27.2275 23.0542V29.75H31.5V23.0542C31.5 19.2094 29.7915 17.5 27.6548 17.5C25.518 17.5 24.3783 18.2115 23.8096 19.209V17.5H19.3936Z" fill="white"/>
</svg>
