<svg width="40" height="40" viewBox="0 0 40 40" fill="none" xmlns="http://www.w3.org/2000/svg">
<path d="M36.6666 6.66501C35.3666 7.43668 32.7583 8.48834 31.2249 8.79168C31.1799 8.80334 31.1433 8.81834 31.0999 8.83001C29.7449 7.49334 27.8883 6.66501 25.8333 6.66501C21.6916 6.66501 18.3333 10.0233 18.3333 14.165C18.3333 14.3833 18.3149 14.785 18.3333 14.9983C12.7449 14.9983 8.49159 12.0717 5.44159 8.33168C5.10992 9.16501 4.96492 10.4817 4.96492 11.7183C4.96492 14.0533 6.78992 16.3467 9.63158 17.7683C9.10825 17.9033 8.53158 18 7.93158 18C6.96325 18 5.93825 17.745 4.99992 16.9717C4.99992 17 4.99992 17.0267 4.99992 17.0567C4.99992 20.32 8.46325 22.5417 11.5433 23.16C10.9183 23.5283 9.65825 23.565 9.04325 23.565C8.60992 23.565 7.07659 23.3667 6.66659 23.29C7.52325 25.965 10.6133 27.4683 13.5583 27.5217C11.2549 29.3283 9.65659 29.9983 4.93992 29.9983H3.33325C6.31325 31.9083 10.1083 33.3333 13.9116 33.3333C26.2949 33.3333 33.3333 23.895 33.3333 14.9983C33.3333 14.855 33.3299 14.555 33.3249 14.2533C33.3249 14.2233 33.3333 14.195 33.3333 14.165C33.3333 14.12 33.3199 14.0767 33.3199 14.0317C33.3149 13.805 33.3099 13.5933 33.3049 13.4833C34.6216 12.5333 35.7633 11.3483 36.6666 9.99834C35.4583 10.535 34.1616 10.895 32.7999 11.0583C34.1899 10.225 36.1649 8.23834 36.6666 6.66501ZM29.9999 14.9983C29.9999 21.7983 25.0716 28.9967 15.8899 29.9033C17.1333 29.0217 18.3333 27.77 18.3333 27.77C18.3333 27.77 13.3333 23.3333 12.9583 17.5367C14.6833 18.0633 16.4799 18.3317 18.3333 18.3317H21.6666V14.165C21.6699 11.865 23.5333 10 25.8333 10C28.1349 10 29.9999 11.865 29.9999 14.1667C29.9999 14.1667 29.9999 14.8667 29.9999 14.9983Z" fill="white"/>
</svg>
