<svg width="150" height="150" viewBox="0 0 150 150" fill="none" xmlns="http://www.w3.org/2000/svg">
<path d="M0 10C0 4.47715 4.47715 0 10 0H100C127.614 0 150 22.3858 150 50V140C150 145.523 145.523 150 140 150H10C4.47715 150 0 145.523 0 140V10Z" fill="#373737"/>
<path d="M81.809 48.568L72.209 67L67.153 64.248C67.5797 64.0773 68.0277 63.9493 68.497 63.864C69.009 63.7787 69.4783 63.736 69.905 63.736C71.3983 63.6933 72.8917 63.864 74.385 64.248C75.8783 64.632 77.2223 65.3147 78.417 66.296C79.6543 67.2773 80.6357 68.6213 81.361 70.328C82.129 72.0347 82.513 74.2107 82.513 76.856C82.513 79.928 81.7877 82.5733 80.337 84.792C78.929 86.968 77.073 88.632 74.769 89.784C72.465 90.936 69.969 91.512 67.281 91.512C65.1903 91.512 62.993 91.0853 60.689 90.232C58.385 89.336 56.5503 88.1627 55.185 86.712L59.921 79.032C60.561 79.8427 61.5423 80.632 62.865 81.4C64.1877 82.168 65.5743 82.552 67.025 82.552C67.9637 82.552 68.881 82.3173 69.777 81.848C70.673 81.3787 71.4197 80.6747 72.017 79.736C72.6143 78.7973 72.913 77.6453 72.913 76.28C72.913 74.4027 72.3797 72.9093 71.313 71.8C70.289 70.6907 68.8383 70.136 66.961 70.136C65.681 70.136 64.6997 70.2 64.017 70.328C63.377 70.4133 62.737 70.5413 62.097 70.712L61.905 70.456L69.393 56.44L72.081 57.528H58.705V48.568H81.809ZM87.335 86.392C87.335 85.0693 87.8043 83.96 88.743 83.064C89.7243 82.168 90.791 81.72 91.943 81.72C93.0097 81.72 94.0123 82.168 94.951 83.064C95.9323 83.96 96.423 85.0693 96.423 86.392C96.423 87.8 95.9323 88.9307 94.951 89.784C94.0123 90.5947 93.0097 91 91.943 91C90.791 91 89.7243 90.5947 88.743 89.784C87.8043 88.9307 87.335 87.8 87.335 86.392Z" fill="#F1F1F1"/>
</svg>
