<svg width="150" height="150" viewBox="0 0 150 150" fill="none" xmlns="http://www.w3.org/2000/svg">
<path d="M0 10C0 4.47715 4.47715 0 10 0H100C127.614 0 150 22.3858 150 50V140C150 145.523 145.523 150 140 150H10C4.47715 150 0 145.523 0 140V10Z" fill="#373737"/>
<path d="M54.2998 91C56.9451 88.312 59.4838 85.7307 61.9158 83.256C64.3478 80.7387 66.5238 78.328 68.4438 76.024C70.4064 73.6773 71.9424 71.416 73.0518 69.24C74.2038 67.064 74.7798 64.952 74.7798 62.904C74.7798 62.008 74.6091 61.1973 74.2678 60.472C73.9691 59.7467 73.5211 59.128 72.9238 58.616C72.3691 58.104 71.6864 57.72 70.8758 57.464C70.1078 57.1653 69.2331 57.016 68.2518 57.016C67.2704 57.016 66.3958 57.1653 65.6278 57.464C64.8598 57.72 64.2198 58.0827 63.7078 58.552C63.1958 59.0213 62.7904 59.5333 62.4918 60.088C62.2358 60.6427 62.1078 61.2187 62.1078 61.816C62.1078 63.1813 62.3211 64.3973 62.7478 65.464C63.2171 66.488 63.8358 67.4053 64.6038 68.216L58.9078 73.4C57.6704 72.8027 56.6038 71.8 55.7078 70.392C54.8544 68.984 54.1931 67.512 53.7238 65.976C53.2971 64.3973 53.0838 63.096 53.0838 62.072C53.0838 59.7253 53.7238 57.4853 55.0038 55.352C56.3264 53.2187 58.2251 51.4693 60.6998 50.104C63.2171 48.7387 66.2678 48.056 69.8518 48.056C72.7958 48.056 75.3558 48.7173 77.5318 50.04C79.7078 51.3627 81.3931 53.112 82.5878 55.288C83.8251 57.4213 84.4438 59.704 84.4438 62.136C84.4438 64.056 84.1451 65.912 83.5478 67.704C82.9504 69.496 82.1184 71.2667 81.0518 73.016C80.0278 74.7227 78.8544 76.4293 77.5318 78.136C76.2091 79.8 74.8438 81.5067 73.4358 83.256L69.2118 82.04H84.9558V91H54.2998ZM89.1163 86.392C89.1163 85.0693 89.5856 83.96 90.5243 83.064C91.5056 82.168 92.5723 81.72 93.7243 81.72C94.7909 81.72 95.7936 82.168 96.7323 83.064C97.7136 83.96 98.2043 85.0693 98.2043 86.392C98.2043 87.8 97.7136 88.9307 96.7323 89.784C95.7936 90.5947 94.7909 91 93.7243 91C92.5723 91 91.5056 90.5947 90.5243 89.784C89.5856 88.9307 89.1163 87.8 89.1163 86.392Z" fill="#F1F1F1"/>
</svg>
