<svg width="150" height="151" viewBox="0 0 150 151" fill="none" xmlns="http://www.w3.org/2000/svg">
<path d="M0 10.5C0 4.97715 4.47715 0.5 10 0.5H100C127.614 0.5 150 22.8858 150 50.5V140.5C150 146.023 145.523 150.5 140 150.5H10C4.47715 150.5 0 146.023 0 140.5V10.5Z" fill="#373737"/>
<path d="M52.4525 82.22V82.156L79.5245 48.556H79.5885V75.18H84.6445V82.22H79.5885V91.5H70.2445V82.22H52.4525ZM70.6925 68.972L65.7645 75.564L64.8685 75.18H70.2445V68.524L70.6925 68.972ZM88.1475 86.892C88.1475 85.5693 88.6168 84.46 89.5555 83.564C90.5368 82.668 91.6035 82.22 92.7555 82.22C93.8222 82.22 94.8248 82.668 95.7635 83.564C96.7448 84.46 97.2355 85.5693 97.2355 86.892C97.2355 88.3 96.7448 89.4307 95.7635 90.284C94.8248 91.0947 93.8222 91.5 92.7555 91.5C91.6035 91.5 90.5368 91.0947 89.5555 90.284C88.6168 89.4307 88.1475 88.3 88.1475 86.892Z" fill="#F1F1F1"/>
</svg>
