<svg width="32" height="32" xmlns="http://www.w3.org/2000/svg">

 <g>
  <title>background</title>
  <rect fill="none" id="canvas_background" height="402" width="582" y="-1" x="-1"/>
 </g>
 <g>
  <title>Layer 1</title>
  <path fill="#373737" id="svg_2" d="m22,29c-4.4,0 -8,-3.6 -8,-8s3.6,-8 8,-8s8,3.6 8,8s-3.6,8 -8,8z"/>
  <path fill="#ff9797" id="svg_3" d="m12,21c0,-3.5 1.8,-6.5 4.4,-8.3l-3,-4.4c-0.5,-0.8 -1.4,-1.3 -2.4,-1.3s-1.9,0.5 -2.4,1.3l-6,8.9c-0.7,1 -0.7,2.2 -0.2,3.2c0.5,1 1.5,1.6 2.6,1.6l7.1,0c-0.1,-0.3 -0.1,-0.7 -0.1,-1z"/>
  <path fill="#3d72a4" id="svg_4" d="m25,4l-8,0c-1.4,0 -2.5,0.9 -2.9,2.1c0.4,0.3 0.7,0.6 0.9,1l3.1,4.6c1.2,-0.5 2.5,-0.8 3.8,-0.8c2.3,0 4.3,0.8 6,2l0,-5.9c0.1,-1.7 -1.2,-3 -2.9,-3z"/>
 </g>
</svg>