<svg width="231" height="300" viewBox="0 0 231 300" fill="none" xmlns="http://www.w3.org/2000/svg">
<path d="M0 10C0 4.47716 4.47715 0 10 0H221C226.523 0 231 4.47715 231 10V184.5C231 248.289 179.289 300 115.5 300C51.7111 300 0 248.289 0 184.5V10Z" fill="#373737"/>
<g clip-path="url(#clip0_7_59)">
<path d="M140.41 153.621L149.634 144.397L127.603 122.366L118.379 131.59L94.0563 107.326C89.4738 102.744 82.0125 102.744 77.43 107.326L66.2675 118.489C61.685 123.071 61.685 130.532 66.2675 135.115L90.5312 159.379L62.625 187.344V209.375H84.6562L112.621 181.41L136.885 205.674C142.466 211.255 149.986 209.199 153.511 205.674L164.674 194.511C169.256 189.929 169.256 182.467 164.674 177.885L140.41 153.621ZM98.9325 151.036L74.61 126.772L85.7137 115.61L93.175 123.071L86.2425 130.062L94.5263 138.346L101.517 131.355L110.036 139.874L98.9325 151.036ZM145.227 197.39L120.964 173.126L132.126 161.964L140.645 170.482L133.654 177.474L141.938 185.757L148.929 178.766L156.39 186.227L145.227 197.39Z" fill="white"/>
<path d="M166.671 127.36C168.963 125.069 168.963 121.368 166.671 119.076L152.924 105.329C150.163 102.568 146.344 103.625 144.64 105.329L133.889 116.08L155.92 138.111L166.671 127.36Z" fill="#FF9797"/>
</g>
<defs>
<clipPath id="clip0_7_59">
<rect width="141" height="141" fill="white" transform="translate(45 86)"/>
</clipPath>
</defs>
</svg>
