<svg width="24" height="24" xmlns="http://www.w3.org/2000/svg">

 <g>
  <title>background</title>
  <rect fill="none" id="canvas_background" height="402" width="582" y="-1" x="-1"/>
 </g>
 <g>
  <title>Layer 1</title>
  <path fill="#3d72a4" id="svg_3" d="m11.8,0l0,1.5l10.2,0c0.3,0 0.5,0.2 0.5,0.5l0,4.1c0,0.3 -0.2,0.5 -0.5,0.5l-10.2,0c-0.3,0 -0.5,-0.2 -0.5,-0.5l0,-4.1c0,-0.3 0.2,-0.5 0.5,-0.5l0,-1.5m0,0c-1.1,0 -2,0.9 -2,2l0,4.1c0,1.1 0.9,2 2,2l10.2,0c1.1,0 2,-0.9 2,-2l0,-4.1c0,-1.1 -0.9,-2 -2,-2l-10.2,0l0,0z"/>
  <path fill="#373737" id="svg_5" d="m2,1.5l3.6,0c0.3,0 0.5,0.2 0.5,0.5l0,8.5c0,0.2 -0.1,0.3 -0.1,0.4c-0.1,0 -0.2,0.1 -0.4,0.1l-3.6,0c-0.3,0 -0.5,-0.2 -0.5,-0.5l0,-8.5c0,-0.2 0.1,-0.3 0.1,-0.4c0.1,0 0.2,-0.1 0.4,-0.1c0,0 0,0 0,0m0,-1.5c-1.1,0 -2,0.9 -2,2l0,8.5c0,1.1 0.9,2 2,2l3.6,0c1.1,0 2,-0.9 2,-2l0,-8.5c0,-1.1 -0.9,-2 -2,-2l-3.6,0l0,0z"/>
  <path fill="#373737" id="svg_7" d="m11.8,10.4l0,1.5l10.2,0c0.3,0 0.5,0.2 0.5,0.5l0,9.6c0,0.2 -0.1,0.3 -0.1,0.4c-0.1,0.1 -0.2,0.1 -0.4,0.1l-10.2,0c-0.3,0 -0.5,-0.2 -0.5,-0.5l0,-9.6c0,-0.3 0.2,-0.5 0.5,-0.5l0,-1.5m0,0c-1.1,0 -2,0.9 -2,2l0,9.6c0,1.1 0.9,2 2,2l10.2,0c1.1,0 2,-0.9 2,-2l0,-9.6c0,-1.1 -0.9,-2 -2,-2l-10.2,0l0,0z"/>
  <path fill="#ff9797" id="svg_9" d="m2,16.3l0,0l3.6,0c0.3,0 0.5,0.2 0.5,0.5l0,5.2c0,0.3 -0.2,0.5 -0.5,0.5l-3.6,0c-0.3,0 -0.5,-0.2 -0.5,-0.5l0,-5.2c0,-0.3 0.2,-0.5 0.5,-0.5m0,-1.5c-1.1,0 -2,0.9 -2,2l0,5.2c0,1.1 0.9,2 2,2l3.6,0c1.1,0 2,-0.9 2,-2l0,-5.2c0,-1.1 -0.9,-2 -2,-2l-3.6,0l0,0z"/>
 </g>
</svg>