<svg width="24" height="24" xmlns="http://www.w3.org/2000/svg">

 <g>
  <title>background</title>
  <rect fill="none" id="canvas_background" height="402" width="582" y="-1" x="-1"/>
 </g>
 <g>
  <title>Layer 1</title>
  <path fill="#3d72a4" id="svg_2" d="m11,8.1c0.5,-0.1 0.9,-0.7 0.7,-1.2c-0.1,-0.5 -0.7,-0.9 -1.2,-0.7c-2.7,0.6 -4.5,3 -4.5,5.8c0,3.3 2.7,6 6,6c3.1,0 5.7,-2.4 6,-5.5c0.1,-0.5 -0.4,-1 -0.9,-1.1c-0.5,-0.1 -1,0.4 -1.1,0.9c-0.2,2 -2,3.7 -4,3.7c-2.2,0 -4,-1.8 -4,-4c0,-1.9 1.2,-3.5 3,-3.9z"/>
  <path fill="#373737" id="svg_3" d="m20.948097,11c-0.6,0 -1,0.4 -1,1c0,4.4 -3.6,8 -8,8s-8,-3.6 -8,-8c0,-4.2 3.3,-7.7 7.5,-8c0.6,0 1,-0.5 0.9,-1.1c0,-0.6 -0.5,-1 -1.1,-0.9c-5.2,0.4 -9.3,4.7 -9.3,10c0,5.5 4.5,10 10,10s10,-4.5 10,-10c0,-0.6 -0.5,-1 -1,-1z"/>
  <path fill="#ff9797" id="svg_4" d="m13.9,8.7l-2.6,2.6c-0.4,0.4 -0.4,1 0,1.4c0.2,0.2 0.5,0.3 0.7,0.3s0.5,-0.1 0.7,-0.3l2.6,-2.6l1.7,0.5c0.1,0 0.2,0 0.3,0c0.3,0 0.5,-0.1 0.7,-0.3l3.9,-4c0.2,-0.2 0.3,-0.6 0.3,-0.9s-0.3,-0.6 -0.6,-0.7l-1.8,-0.6l-0.6,-1.8c-0.1,-0.3 -0.4,-0.6 -0.7,-0.6c-0.3,-0.1 -0.7,0 -0.9,0.3l-3.9,4c-0.3,0.3 -0.4,0.7 -0.2,1l0.4,1.7zm3.9,-4.1l0.3,0.7c0.1,0.3 0.3,0.5 0.6,0.6l0.7,0.3l-2.4,2.4l-1.2,-0.4l-0.4,-1.2l2.4,-2.4z"/>
 </g>
</svg>