<svg width="788" height="100" viewBox="0 0 788 100" fill="none" xmlns="http://www.w3.org/2000/svg">
<path d="M68.544 5.34399H69.544V4.34399H68.544V5.34399ZM68.544 76V77H69.544V76H68.544ZM54.624 76H53.624V77H54.624V76ZM54.624 47.296H55.624V46.296H54.624V47.296ZM23.04 47.296V46.296H22.04V47.296H23.04ZM23.04 76V77H24.04V76H23.04ZM9.12 76H8.12V77H9.12V76ZM9.12 5.34399V4.34399H8.12V5.34399H9.12ZM23.04 5.34399H24.04V4.34399H23.04V5.34399ZM23.04 33.856H22.04V34.856H23.04V33.856ZM54.624 33.856V34.856H55.624V33.856H54.624ZM54.624 5.34399V4.34399H53.624V5.34399H54.624ZM67.544 5.34399V76H69.544V5.34399H67.544ZM68.544 75H54.624V77H68.544V75ZM55.624 76V47.296H53.624V76H55.624ZM54.624 46.296H23.04V48.296H54.624V46.296ZM22.04 47.296V76H24.04V47.296H22.04ZM23.04 75H9.12V77H23.04V75ZM10.12 76V5.34399H8.12V76H10.12ZM9.12 6.34399H23.04V4.34399H9.12V6.34399ZM22.04 5.34399V33.856H24.04V5.34399H22.04ZM23.04 34.856H54.624V32.856H23.04V34.856ZM55.624 33.856V5.34399H53.624V33.856H55.624ZM54.624 6.34399H68.544V4.34399H54.624V6.34399ZM84.537 34.048V33.048H83.537V34.048H84.537ZM97.977 34.048H98.977V33.048H97.977V34.048ZM97.977 76V77H98.977V76H97.977ZM84.537 76H83.537V77H84.537V76ZM86.553 14.272L85.9283 13.4911L85.9205 13.4974L85.9128 13.5038L86.553 14.272ZM96.537 14.272L95.8808 15.0266L95.8887 15.0335L95.8968 15.0402L96.537 14.272ZM96.537 24.064L97.1739 24.835L97.1772 24.8322L96.537 24.064ZM86.553 24.064L85.9128 24.8322L85.9301 24.8466L85.9479 24.8602L86.553 24.064ZM84.537 35.048H97.977V33.048H84.537V35.048ZM96.977 34.048V76H98.977V34.048H96.977ZM97.977 75H84.537V77H97.977V75ZM85.537 76V34.048H83.537V76H85.537ZM85.249 19.168C85.249 17.4834 85.8831 16.1319 87.1932 15.0402L85.9128 13.5038C84.1509 14.9721 83.249 16.8846 83.249 19.168H85.249ZM87.1777 15.0529C88.6271 13.8933 90.1081 13.352 91.641 13.352V11.352C89.5899 11.352 87.6789 12.0907 85.9283 13.4911L87.1777 15.0529ZM91.641 13.352C93.1697 13.352 94.5734 13.8897 95.8808 15.0266L97.1932 13.5174C95.5566 12.0943 93.6963 11.352 91.641 11.352V13.352ZM95.8968 15.0402C97.2069 16.1319 97.841 17.4834 97.841 19.168H99.841C99.841 16.8846 98.9391 14.9721 97.1772 13.5038L95.8968 15.0402ZM97.841 19.168C97.841 20.8526 97.2069 22.2041 95.8968 23.2958L97.1772 24.8322C98.9391 23.3639 99.841 21.4514 99.841 19.168H97.841ZM95.9001 23.293C94.5947 24.3714 93.1846 24.888 91.641 24.888V26.888C93.6814 26.888 95.5353 26.1886 97.1739 24.835L95.9001 23.293ZM91.641 24.888C90.0939 24.888 88.6063 24.3685 87.1581 23.2678L85.9479 24.8602C87.6997 26.1915 89.6041 26.888 91.641 26.888V24.888ZM87.1932 23.2958C85.8831 22.2041 85.249 20.8526 85.249 19.168H83.249C83.249 21.4514 84.1509 23.3639 85.9128 24.8322L87.1932 23.2958ZM139.581 2.56V1.56H138.581V2.56H139.581ZM151.581 2.56H152.581V1.56H151.581V2.56ZM151.581 56.896V57.896H152.581V56.896H151.581ZM139.581 56.896H138.581V57.896H139.581V56.896ZM140.253 75.52L139.597 76.2746L139.606 76.2829L139.616 76.291L140.253 75.52ZM140.253 65.536L139.594 64.7834L139.587 64.7904L139.579 64.7975L140.253 65.536ZM151.389 65.536L150.699 66.2594L150.707 66.267L150.715 66.2745L151.389 65.536ZM151.485 75.52L152.139 76.2768L152.148 76.2685L152.158 76.2599L151.485 75.52ZM139.581 3.56H151.581V1.56H139.581V3.56ZM150.581 2.56V56.896H152.581V2.56H150.581ZM151.581 55.896H139.581V57.896H151.581V55.896ZM140.581 56.896V2.56H138.581V56.896H140.581ZM145.917 76.344C143.796 76.344 142.148 75.788 140.89 74.749L139.616 76.291C141.302 77.684 143.43 78.344 145.917 78.344V76.344ZM140.909 74.7654C139.668 73.6859 139.045 72.303 139.045 70.528H137.045C137.045 72.849 137.894 74.7942 139.597 76.2746L140.909 74.7654ZM139.045 70.528C139.045 68.8265 139.662 67.43 140.927 66.2745L139.579 64.7975C137.9 66.33 137.045 68.2615 137.045 70.528H139.045ZM140.911 66.2886C142.247 65.1201 143.894 64.52 145.917 64.52V62.52C143.46 62.52 141.331 63.2639 139.594 64.7834L140.911 66.2886ZM145.917 64.52C147.942 64.52 149.505 65.1198 150.699 66.2594L152.079 64.8126C150.457 63.2642 148.372 62.52 145.917 62.52V64.52ZM150.715 66.2745C151.98 67.43 152.597 68.8265 152.597 70.528H154.597C154.597 68.2615 153.742 66.33 152.063 64.7975L150.715 66.2745ZM152.597 70.528C152.597 72.3184 151.995 73.7052 150.812 74.7801L152.158 76.2599C153.791 74.7748 154.597 72.8336 154.597 70.528H152.597ZM150.831 74.7632C149.645 75.7875 148.04 76.344 145.917 76.344V78.344C148.402 78.344 150.509 77.6845 152.139 76.2768L150.831 74.7632ZM195.87 5.34399V4.34399H194.87V5.34399H195.87ZM209.79 5.34399H210.79V4.34399H209.79V5.34399ZM209.79 76V77H210.79V76H209.79ZM195.87 76H194.87V77H195.87V76ZM195.87 6.34399H209.79V4.34399H195.87V6.34399ZM208.79 5.34399V76H210.79V5.34399H208.79ZM209.79 75H195.87V77H209.79V75ZM196.87 76V5.34399H194.87V76H196.87ZM227.738 22.336L227.376 23.268L227.825 23.4429L228.242 23.1998L227.738 22.336ZM220.826 19.648L220.154 18.9081L218.958 19.9946L220.464 20.58L220.826 19.648ZM224.954 7.07199L224.889 6.07413L223.75 6.14865L223.974 7.26811L224.954 7.07199ZM235.226 6.4L236.204 6.19047L236.023 5.34573L235.161 5.40213L235.226 6.4ZM234.746 12.352L233.795 12.0442L233.791 12.0569L233.787 12.0698L234.746 12.352ZM231.866 18.304L231.053 17.7228L231.046 17.7325L231.039 17.7425L231.866 18.304ZM228.101 21.404L221.189 18.716L220.464 20.58L227.376 23.268L228.101 21.404ZM221.499 20.3879C223.061 18.9678 224.288 16.9566 225.221 14.4257L223.344 13.7343C222.484 16.0674 221.407 17.7682 220.154 18.9081L221.499 20.3879ZM225.221 14.4257C226.172 11.8443 226.424 9.32034 225.935 6.87588L223.974 7.26811C224.381 9.30365 224.185 11.4517 223.344 13.7343L225.221 14.4257ZM225.02 8.06986L235.292 7.39786L235.161 5.40213L224.889 6.07413L225.02 8.06986ZM234.248 6.60953C234.588 8.19205 234.458 9.99435 233.795 12.0442L235.698 12.6598C236.443 10.3576 236.633 8.19194 236.204 6.19047L234.248 6.60953ZM233.787 12.0698C233.177 14.142 232.266 16.0243 231.053 17.7228L232.68 18.8852C234.027 16.9997 235.035 14.914 235.706 12.6342L233.787 12.0698ZM231.039 17.7425C229.889 19.4373 228.616 20.6661 227.234 21.4722L228.242 23.1998C229.932 22.2139 231.412 20.7547 232.694 18.8655L231.039 17.7425ZM256.948 34.048L257.938 33.9066L257.815 33.048H256.948V34.048ZM258.004 41.44L257.055 41.7562L258.994 41.2986L258.004 41.44ZM257.812 40.864L256.951 40.3553L256.719 40.7477L256.863 41.1802L257.812 40.864ZM264.052 34.336L264.576 35.1877L264.584 35.1828L264.591 35.1779L264.052 34.336ZM279.124 32.896L278.776 33.8338L278.787 33.8377L279.124 32.896ZM283.636 35.776L282.911 36.4647L282.92 36.474L282.929 36.4831L283.636 35.776ZM286.132 40.576L286.328 41.5566L287.333 41.3556L287.107 40.3557L286.132 40.576ZM285.652 40.672L284.826 40.108L283.443 42.1336L285.848 41.6526L285.652 40.672ZM292.084 34.336L291.554 33.4879L291.544 33.4941L292.084 34.336ZM309.94 35.488L309.242 36.2045L309.252 36.2138L309.261 36.2228L309.94 35.488ZM313.78 44.512H314.78V44.5034L314.78 44.4948L313.78 44.512ZM313.78 76V77H314.78V76H313.78ZM300.436 76H299.436V77H300.436V76ZM300.436 50.08H301.436V50.0628L301.435 50.0455L300.436 50.08ZM299.572 45.568L298.65 45.9561L298.654 45.9651L298.658 45.9741L299.572 45.568ZM296.02 43.552L296.089 42.5544L296.054 42.552H296.02V43.552ZM290.452 45.856L291.159 46.5631L290.452 45.856ZM287.092 51.616L286.141 51.3075L286.138 51.3156L286.135 51.3238L287.092 51.616ZM286.036 76V77H287.036V76H286.036ZM272.596 76H271.596V77H272.596V76ZM272.596 50.08H273.596V50.0628L273.595 50.0455L272.596 50.08ZM271.54 45.568L270.636 45.9961L270.65 46.0253L270.666 46.0536L271.54 45.568ZM267.892 43.552L267.961 42.5544L267.926 42.552H267.892V43.552ZM262.516 45.856L261.794 45.1641L261.793 45.1648L262.516 45.856ZM259.252 51.52L258.303 51.2038L258.299 51.2157L258.295 51.2278L259.252 51.52ZM258.196 76V77H259.196V76H258.196ZM244.756 76H243.756V77H244.756V76ZM244.756 34.048V33.048H243.756V34.048H244.756ZM255.958 34.1894L257.014 41.5814L258.994 41.2986L257.938 33.9066L255.958 34.1894ZM258.952 41.1238L258.76 40.5478L256.863 41.1802L257.055 41.7562L258.952 41.1238ZM258.673 41.3727C260.264 38.6802 262.234 36.6289 264.576 35.1877L263.528 33.4843C260.878 35.1151 258.688 37.4158 256.951 40.3553L258.673 41.3727ZM264.591 35.1779C266.898 33.6991 269.711 32.936 273.076 32.936V30.936C269.401 30.936 266.197 31.7729 263.512 33.4941L264.591 35.1779ZM273.076 32.936C275.29 32.936 277.184 33.2438 278.776 33.8337L279.471 31.9582C277.608 31.2682 275.47 30.936 273.076 30.936V32.936ZM278.787 33.8377C280.444 34.4292 281.811 35.3071 282.911 36.4647L284.361 35.0872C283.029 33.6849 281.388 32.6428 279.46 31.9543L278.787 33.8377ZM282.929 36.4831C283.988 37.5427 284.742 38.9625 285.156 40.7963L287.107 40.3557C286.625 38.2215 285.715 36.4413 284.343 35.0689L282.929 36.4831ZM285.936 39.5954L285.456 39.6914L285.848 41.6526L286.328 41.5566L285.936 39.5954ZM286.478 41.236C288.199 38.7148 290.248 36.7003 292.623 35.1779L291.544 33.4941C288.927 35.1717 286.688 37.3812 284.826 40.108L286.478 41.236ZM292.614 35.184C295.031 33.6734 297.505 32.936 300.052 32.936V30.936C297.094 30.936 294.257 31.7986 291.554 33.488L292.614 35.184ZM300.052 32.936C304.013 32.936 307.037 34.0575 309.242 36.2045L310.637 34.7715C307.978 32.1825 304.41 30.936 300.052 30.936V32.936ZM309.261 36.2228C311.537 38.3233 312.72 41.0622 312.78 44.5292L314.78 44.4948C314.711 40.5378 313.335 37.2607 310.618 34.7532L309.261 36.2228ZM312.78 44.512V76H314.78V44.512H312.78ZM313.78 75H300.436V77H313.78V75ZM301.436 76V50.08H299.436V76H301.436ZM301.435 50.0455C301.369 48.1165 301.068 46.4728 300.486 45.1619L298.658 45.9741C299.099 46.9672 299.375 48.3315 299.436 50.1145L301.435 50.0455ZM300.493 45.1799C299.777 43.4786 298.145 42.6962 296.089 42.5544L295.951 44.5496C297.607 44.6638 298.342 45.2254 298.65 45.9561L300.493 45.1799ZM296.02 42.552C293.579 42.552 291.469 43.425 289.745 45.1489L291.159 46.5631C292.507 45.215 294.108 44.552 296.02 44.552V42.552ZM289.745 45.1489C288.141 46.7525 286.948 48.8184 286.141 51.3075L288.043 51.9245C288.772 49.6776 289.818 47.9035 291.159 46.5631L289.745 45.1489ZM286.135 51.3238C285.401 53.7259 285.036 56.2246 285.036 58.816H287.036C287.036 56.4154 287.374 54.1141 288.048 51.9082L286.135 51.3238ZM285.036 58.816V76H287.036V58.816H285.036ZM286.036 75H272.596V77H286.036V75ZM273.596 76V50.08H271.596V76H273.596ZM273.595 50.0455C273.528 48.0921 273.156 46.4176 272.414 45.0824L270.666 46.0536C271.204 47.0224 271.536 48.3559 271.596 50.1145L273.595 50.0455ZM272.443 45.1399C271.656 43.4768 270.021 42.6965 267.961 42.5544L267.823 44.5496C269.474 44.6635 270.272 45.2272 270.636 45.9961L272.443 45.1399ZM267.892 42.552C265.505 42.552 263.453 43.4329 261.794 45.1641L263.238 46.5479C264.523 45.2071 266.055 44.552 267.892 44.552V42.552ZM261.793 45.1648C260.265 46.7621 259.109 48.7862 258.303 51.2038L260.2 51.8362C260.931 49.6458 261.95 47.8939 263.238 46.5472L261.793 45.1648ZM258.295 51.2278C257.562 53.6274 257.196 56.0939 257.196 58.624H259.196C259.196 56.2901 259.533 54.0206 260.208 51.8122L258.295 51.2278ZM257.196 58.624V76H259.196V58.624H257.196ZM258.196 75H244.756V77H258.196V75ZM245.756 76V34.048H243.756V76H245.756ZM244.756 35.048H256.948V33.048H244.756V35.048ZM377.569 76.864L378.442 77.3518L377.569 76.864ZM367.393 86.848L366.926 85.9642L366.918 85.9683L366.91 85.9726L367.393 86.848ZM352.418 90.688H351.418V91.7223L352.451 91.6874L352.418 90.688ZM352.418 77.152L352.359 76.1537L351.418 76.2091V77.152H352.418ZM363.073 73.12L362.411 72.3707L363.073 73.12ZM367.202 5.34399V4.34399H366.202V5.34399H367.202ZM381.217 5.34399H382.217V4.34399H381.217V5.34399ZM380.217 61.12C380.217 67.1325 379.028 72.2042 376.697 76.3762L378.442 77.3518C380.975 72.8198 382.217 67.3955 382.217 61.12H380.217ZM376.697 76.3762C374.357 80.5621 371.105 83.7516 366.926 85.9642L367.861 87.7318C372.386 85.3364 375.918 81.8699 378.442 77.3518L376.697 76.3762ZM366.91 85.9726C362.781 88.2528 357.948 89.501 352.384 89.6886L352.451 91.6874C358.279 91.491 363.43 90.1792 367.877 87.7234L366.91 85.9726ZM353.418 90.688V77.152H351.418V90.688H353.418ZM352.476 78.1503C357.008 77.8837 360.786 76.4759 363.736 73.8693L362.411 72.3707C359.857 74.6281 356.531 75.9083 352.359 76.1537L352.476 78.1503ZM363.736 73.8693C366.799 71.162 368.202 66.7174 368.202 60.832H366.202C366.202 66.4666 364.852 70.214 362.411 72.3707L363.736 73.8693ZM368.202 60.832V5.34399H366.202V60.832H368.202ZM367.202 6.34399H381.217V4.34399H367.202V6.34399ZM380.217 5.34399V61.12H382.217V5.34399H380.217ZM396.999 42.976L396.143 42.4591L396.136 42.4711L396.999 42.976ZM405.543 35.008L406.009 35.893L406.021 35.8865L405.543 35.008ZM430.599 35.008L430.108 35.8792L430.12 35.8859L430.599 35.008ZM438.663 42.976L437.786 43.456L437.789 43.4623L437.793 43.4686L438.663 42.976ZM438.663 66.112L437.789 65.6263L437.786 65.632L438.663 66.112ZM430.599 74.176L430.108 73.3048L430.599 74.176ZM405.543 74.464L405.096 75.3585L405.102 75.3616L405.543 74.464ZM397.095 66.688L396.239 67.2049L397.095 66.688ZM408.903 60.544L408.009 60.9912L408.012 60.9978L408.015 61.0043L408.903 60.544ZM412.551 64.672L411.996 65.5041L412.551 64.672ZM423.207 64.672L422.652 63.8399V63.84L423.207 64.672ZM426.759 60.544L427.66 60.9779L427.666 60.9651L426.759 60.544ZM426.759 48.64L425.858 49.0738L426.759 48.64ZM423.207 44.512L422.652 45.344V45.3441L423.207 44.512ZM412.551 44.512L411.996 43.6799V43.68L412.551 44.512ZM408.903 48.64L408.015 48.1797L408.903 48.64ZM395.023 54.496C395.023 50.3688 395.976 46.7059 397.862 43.4809L396.136 42.4711C394.054 46.0301 393.023 50.0472 393.023 54.496H395.023ZM397.855 43.4929C399.805 40.2633 402.515 37.7317 406.009 35.8929L405.077 34.1231C401.275 36.1243 398.289 38.9047 396.143 42.4591L397.855 43.4929ZM406.021 35.8865C409.503 33.9928 413.526 33.032 418.119 33.032V31.032C413.24 31.032 408.879 32.0552 405.065 34.1295L406.021 35.8865ZM418.119 33.032C422.779 33.032 426.764 33.9942 430.108 35.8792L431.09 34.1368C427.394 32.0538 423.059 31.032 418.119 31.032V33.032ZM430.12 35.8859C433.479 37.7177 436.025 40.2385 437.786 43.456L439.54 42.496C437.589 38.9295 434.759 36.1383 431.078 34.1301L430.12 35.8859ZM437.793 43.4686C439.619 46.6956 440.543 50.3629 440.543 54.496H442.543C442.543 50.0531 441.547 46.0404 439.533 42.4834L437.793 43.4686ZM440.543 54.496C440.543 58.6288 439.619 62.3313 437.789 65.6264L439.537 66.5976C441.547 62.9807 442.543 58.9392 442.543 54.496H440.543ZM437.786 65.632C436.024 68.8525 433.473 71.4083 430.108 73.3048L431.09 75.0471C434.765 72.9757 437.59 70.1555 439.54 66.592L437.786 65.632ZM430.108 73.3048C426.767 75.1877 422.721 76.152 417.927 76.152V78.152C422.989 78.152 427.391 77.1323 431.09 75.0471L430.108 73.3048ZM417.927 76.152C413.451 76.152 409.477 75.2825 405.984 73.5664L405.102 75.3616C408.905 77.2295 413.187 78.152 417.927 78.152V76.152ZM405.99 73.5696C402.573 71.8612 399.9 69.3992 397.951 66.1711L396.239 67.2049C398.386 70.7608 401.345 73.4828 405.096 75.3584L405.99 73.5696ZM397.951 66.1711C396.014 62.9631 395.023 59.0856 395.023 54.496H393.023C393.023 59.3784 394.08 63.6289 396.239 67.2049L397.951 66.1711ZM406.559 54.592C406.559 56.9096 407.037 59.0487 408.009 60.9912L409.797 60.0968C408.977 58.4553 408.559 56.6264 408.559 54.592H406.559ZM408.015 61.0043C408.985 62.8739 410.312 64.3811 411.996 65.5041L413.106 63.84C411.718 62.9149 410.613 61.6701 409.791 60.0837L408.015 61.0043ZM411.996 65.5041C413.703 66.6421 415.626 67.208 417.735 67.208V65.208C416.004 65.208 414.471 64.7499 413.106 63.84L411.996 65.5041ZM417.735 67.208C420.015 67.208 422.039 66.6528 423.762 65.5041L422.652 63.84C421.303 64.7392 419.679 65.208 417.735 65.208V67.208ZM423.762 65.5041C425.453 64.3767 426.753 62.8606 427.66 60.9778L425.858 60.1102C425.101 61.6834 424.033 62.9193 422.652 63.8399L423.762 65.5041ZM427.666 60.9651C428.565 59.0283 429.007 56.8986 429.007 54.592H427.007C427.007 56.6374 426.617 58.4757 425.852 60.1229L427.666 60.9651ZM429.007 54.592C429.007 52.2269 428.567 50.0905 427.66 48.2062L425.858 49.0738C426.615 50.6455 427.007 52.4771 427.007 54.592H429.007ZM427.66 48.2062C426.753 46.3234 425.453 44.8073 423.762 43.6799L422.652 45.3441C424.033 46.2647 425.101 47.5006 425.858 49.0738L427.66 48.2062ZM423.762 43.68C422.039 42.5312 420.015 41.976 417.735 41.976V43.976C419.679 43.976 421.303 44.4448 422.652 45.344L423.762 43.68ZM417.735 41.976C415.626 41.976 413.703 42.5419 411.996 43.6799L413.106 45.3441C414.471 44.4341 416.004 43.976 417.735 43.976V41.976ZM411.996 43.68C410.312 44.8029 408.985 46.3101 408.015 48.1797L409.791 49.1003C410.613 47.5139 411.718 46.2691 413.106 45.344L411.996 43.68ZM408.015 48.1797C407.035 50.07 406.559 52.2161 406.559 54.592H408.559C408.559 52.4879 408.979 50.666 409.791 49.1003L408.015 48.1797ZM452.131 76H451.131V77H452.131V76ZM452.131 0.255997V-0.744003H451.131V0.255997H452.131ZM465.283 0.255997H466.283V-0.744003H465.283V0.255997ZM465.283 42.496L464.284 42.5547L466.283 42.496H465.283ZM465.187 40.864L464.315 40.3747L464.171 40.6303L464.188 40.9227L465.187 40.864ZM471.427 34.528L471.938 35.3873L471.946 35.3828L471.953 35.3783L471.427 34.528ZM491.203 35.584L490.533 36.3264L490.542 36.3349L490.552 36.3433L491.203 35.584ZM495.331 44.608H496.331V44.5994L496.331 44.5908L495.331 44.608ZM495.331 76V77H496.331V76H495.331ZM481.891 76H480.891V77H481.891V76ZM481.891 49.6H482.891V49.5828L482.89 49.5655L481.891 49.6ZM480.355 45.184L479.565 45.7979L479.584 45.8224L479.605 45.8456L480.355 45.184ZM470.371 45.472L471.029 46.2246L470.371 45.472ZM466.819 50.944L467.759 51.2836L466.819 50.944ZM465.571 76V77H466.571V76H465.571ZM453.131 76V0.255997H451.131V76H453.131ZM452.131 1.256H465.283V-0.744003H452.131V1.256ZM464.283 0.255997V42.496H466.283V0.255997H464.283ZM466.281 42.4373L466.185 40.8053L464.188 40.9227L464.284 42.5547L466.281 42.4373ZM466.059 41.3532C467.442 38.8883 469.395 36.9014 471.938 35.3873L470.915 33.6687C468.083 35.3546 465.876 37.5917 464.315 40.3747L466.059 41.3532ZM471.953 35.3783C474.45 33.8328 477.553 33.032 481.315 33.032V31.032C477.268 31.032 473.78 31.8952 470.9 33.6777L471.953 35.3783ZM481.315 33.032C485.068 33.032 488.115 34.1449 490.533 36.3264L491.873 34.8416C489.042 32.2871 485.498 31.032 481.315 31.032V33.032ZM490.552 36.3433C493.011 38.4512 494.272 41.1833 494.331 44.6252L496.331 44.5908C496.262 40.6087 494.77 37.3248 491.854 34.8247L490.552 36.3433ZM494.331 44.608V76H496.331V44.608H494.331ZM495.331 75H481.891V77H495.331V75ZM482.891 76V49.6H480.891V76H482.891ZM482.89 49.5655C482.82 47.5439 482.257 45.828 481.105 44.5224L479.605 45.8456C480.373 46.716 480.833 47.9441 480.891 49.6345L482.89 49.5655ZM481.144 44.5701C479.98 43.0731 478.075 42.456 475.747 42.456V44.456C477.771 44.456 478.938 44.9909 479.565 45.7979L481.144 44.5701ZM475.747 42.456C473.457 42.456 471.431 43.2153 469.712 44.7194L471.029 46.2246C472.382 45.0407 473.94 44.456 475.747 44.456V42.456ZM469.712 44.7194C468.026 46.1953 466.756 48.1729 465.878 50.6044L467.759 51.2836C468.545 49.1071 469.644 47.4367 471.029 46.2246L469.712 44.7194ZM465.878 50.6044C464.999 53.0389 464.571 55.8137 464.571 58.912H466.571C466.571 55.9943 466.974 53.4571 467.759 51.2836L465.878 50.6044ZM464.571 58.912V76H466.571V58.912H464.571ZM465.571 75H452.131V77H465.571V75ZM521.323 34.048L522.313 33.9084L522.192 33.048H521.323V34.048ZM522.379 41.536L521.417 41.8107L523.369 41.3964L522.379 41.536ZM522.187 40.864L521.315 40.3747L521.111 40.7381L521.225 41.1387L522.187 40.864ZM528.427 34.528L528.938 35.3873L528.946 35.3828L528.953 35.3783L528.427 34.528ZM548.203 35.584L547.533 36.3264L547.542 36.3349L547.552 36.3433L548.203 35.584ZM552.331 44.608H553.331V44.5994L553.331 44.5908L552.331 44.608ZM552.331 76V77H553.331V76H552.331ZM538.891 76H537.891V77H538.891V76ZM538.891 49.6H539.891V49.5828L539.89 49.5655L538.891 49.6ZM537.355 45.184L536.565 45.7979L536.584 45.8224L536.605 45.8456L537.355 45.184ZM527.371 45.472L528.029 46.2246L527.371 45.472ZM523.819 50.944L524.759 51.2836L523.819 50.944ZM522.571 76V77H523.571V76H522.571ZM509.131 76H508.131V77H509.131V76ZM509.131 34.048V33.048H508.131V34.048H509.131ZM520.333 34.1876L521.389 41.6756L523.369 41.3964L522.313 33.9084L520.333 34.1876ZM523.34 41.2613L523.148 40.5893L521.225 41.1387L521.417 41.8107L523.34 41.2613ZM523.059 41.3532C524.442 38.8883 526.395 36.9014 528.938 35.3873L527.915 33.6687C525.083 35.3546 522.876 37.5917 521.315 40.3747L523.059 41.3532ZM528.953 35.3783C531.45 33.8328 534.553 33.032 538.315 33.032V31.032C534.268 31.032 530.78 31.8952 527.9 33.6777L528.953 35.3783ZM538.315 33.032C542.068 33.032 545.115 34.1449 547.533 36.3264L548.873 34.8416C546.042 32.2871 542.498 31.032 538.315 31.032V33.032ZM547.552 36.3433C550.011 38.4512 551.272 41.1833 551.331 44.6252L553.331 44.5908C553.262 40.6087 551.77 37.3248 548.854 34.8247L547.552 36.3433ZM551.331 44.608V76H553.331V44.608H551.331ZM552.331 75H538.891V77H552.331V75ZM539.891 76V49.6H537.891V76H539.891ZM539.89 49.5655C539.82 47.5439 539.257 45.828 538.105 44.5224L536.605 45.8456C537.373 46.716 537.833 47.9441 537.891 49.6345L539.89 49.5655ZM538.144 44.5701C536.98 43.0731 535.075 42.456 532.747 42.456V44.456C534.771 44.456 535.938 44.9909 536.565 45.7979L538.144 44.5701ZM532.747 42.456C530.457 42.456 528.431 43.2153 526.712 44.7194L528.029 46.2246C529.382 45.0407 530.94 44.456 532.747 44.456V42.456ZM526.712 44.7194C525.026 46.1953 523.756 48.1729 522.878 50.6044L524.759 51.2836C525.545 49.1071 526.644 47.4367 528.029 46.2246L526.712 44.7194ZM522.878 50.6044C521.999 53.0389 521.571 55.8137 521.571 58.912H523.571C523.571 55.9943 523.974 53.4571 524.759 51.2836L522.878 50.6044ZM521.571 58.912V76H523.571V58.912H521.571ZM522.571 75H509.131V77H522.571V75ZM510.131 76V34.048H508.131V76H510.131ZM509.131 35.048H521.323V33.048H509.131V35.048ZM599.557 76H598.557V77H599.557V76ZM599.557 5.34399V4.34399H598.557V5.34399H599.557ZM638.821 8.512L638.432 9.43297L638.821 8.512ZM650.821 16.96L650.061 17.6097L650.068 17.6175L650.821 16.96ZM657.542 28.768L658.493 28.4602H658.493L657.542 28.768ZM656.773 56.128L655.863 55.7142L655.86 55.7206L656.773 56.128ZM649.094 66.88L649.763 67.6226L649.771 67.6154L649.094 66.88ZM637.766 73.696L638.103 74.6375L638.115 74.6329L637.766 73.696ZM613.477 62.56H612.477V63.56H613.477V62.56ZM631.333 61.216L631.631 62.1709L631.64 62.1679L631.65 62.1647L631.333 61.216ZM638.726 57.088L638.079 56.3255L638.073 56.3304L638.067 56.3354L638.726 57.088ZM643.526 50.368L642.603 49.9818L642.599 49.9928L643.526 50.368ZM642.95 29.728L642.055 30.1752L642.061 30.187L642.067 30.1986L642.95 29.728ZM637.382 22.912L636.789 23.7177L636.8 23.7257L637.382 22.912ZM630.661 19.648L630.394 20.6115L630.406 20.615L630.419 20.6181L630.661 19.648ZM613.477 18.688V17.688H612.477V18.688H613.477ZM600.557 76V5.34399H598.557V76H600.557ZM599.557 6.34399H620.677V4.34399H599.557V6.34399ZM620.677 6.34399C627.687 6.34399 633.595 7.3866 638.432 9.43297L639.211 7.59103C634.064 5.41339 627.876 4.34399 620.677 4.34399V6.34399ZM638.432 9.43297C643.305 11.4948 647.17 14.2262 650.061 17.6097L651.582 16.3103C648.457 12.6538 644.322 9.7532 639.211 7.59103L638.432 9.43297ZM650.068 17.6175C653.053 21.0378 655.225 24.8554 656.59 29.0758L658.493 28.4602C657.042 23.9766 654.734 19.9222 651.575 16.3025L650.068 17.6175ZM656.59 29.0758C657.967 33.332 658.654 37.6122 658.654 41.92H660.654C660.654 37.3958 659.932 32.908 658.493 28.4602L656.59 29.0758ZM658.654 41.92C658.654 47.044 657.717 51.6362 655.863 55.7142L657.684 56.5418C659.67 52.1718 660.654 47.292 660.654 41.92H658.654ZM655.86 55.7206C654.058 59.7597 651.577 63.2312 648.416 66.1446L649.771 67.6154C653.138 64.5128 655.777 60.8163 657.687 56.5354L655.86 55.7206ZM648.424 66.1374C645.257 68.9936 641.591 71.2013 637.416 72.7591L638.115 74.6329C642.516 72.9907 646.402 70.6544 649.763 67.6226L648.424 66.1374ZM637.428 72.7546C633.254 74.2498 628.825 75 624.133 75V77C629.042 77 633.701 76.2142 638.103 74.6374L637.428 72.7546ZM624.133 75H599.557V77H624.133V75ZM613.477 63.56H621.734V61.56H613.477V63.56ZM621.734 63.56C625.338 63.56 628.64 63.1013 631.631 62.1709L631.036 60.2611C628.267 61.1227 625.169 61.56 621.734 61.56V63.56ZM631.65 62.1647C634.641 61.1675 637.225 59.7296 639.384 57.8406L638.067 56.3354C636.13 58.0304 633.786 59.3445 631.017 60.2673L631.65 62.1647ZM639.372 57.8505C641.614 55.949 643.307 53.5738 644.452 50.7432L642.599 49.9928C641.568 52.5382 640.061 54.643 638.079 56.3255L639.372 57.8505ZM644.448 50.7541C645.659 47.8599 646.253 44.5891 646.253 40.96H644.253C644.253 44.3709 643.695 47.3721 642.603 49.9819L644.448 50.7541ZM646.253 40.96C646.253 36.2515 645.47 32.3295 643.832 29.2574L642.067 30.1986C643.501 32.8865 644.253 36.4525 644.253 40.96H646.253ZM643.844 29.2808C642.313 26.2193 640.359 23.81 637.963 22.0983L636.8 23.7257C638.884 25.214 640.642 27.3487 642.055 30.1752L643.844 29.2808ZM637.974 22.1063C635.707 20.4398 633.35 19.2894 630.904 18.6779L630.419 20.6181C632.581 21.1586 634.704 22.1842 636.789 23.7176L637.974 22.1063ZM630.929 18.6845C628.576 18.031 626.529 17.688 624.805 17.688V19.688C626.282 19.688 628.138 19.985 630.394 20.6115L630.929 18.6845ZM624.805 17.688H613.477V19.688H624.805V17.688ZM612.477 18.688V62.56H614.477V18.688H612.477ZM671.124 42.976L670.268 42.4591L670.261 42.4711L671.124 42.976ZM679.668 35.008L680.134 35.893L680.146 35.8865L679.668 35.008ZM704.724 35.008L704.233 35.8792L704.245 35.8859L704.724 35.008ZM712.788 42.976L711.911 43.456L711.914 43.4623L711.918 43.4686L712.788 42.976ZM712.788 66.112L711.914 65.6263L711.911 65.632L712.788 66.112ZM704.724 74.176L704.233 73.3048L704.724 74.176ZM679.668 74.464L679.221 75.3585L679.227 75.3616L679.668 74.464ZM671.22 66.688L670.364 67.2049L671.22 66.688ZM683.028 60.544L682.134 60.9912L682.137 60.9978L682.14 61.0043L683.028 60.544ZM686.676 64.672L686.121 65.5041L686.676 64.672ZM697.332 64.672L696.777 63.8399V63.84L697.332 64.672ZM700.884 60.544L701.785 60.9779L701.791 60.9651L700.884 60.544ZM700.884 48.64L699.983 49.0738L700.884 48.64ZM697.332 44.512L696.777 45.344V45.3441L697.332 44.512ZM686.676 44.512L686.121 43.6799V43.68L686.676 44.512ZM683.028 48.64L682.14 48.1797L683.028 48.64ZM669.148 54.496C669.148 50.3688 670.101 46.7059 671.987 43.4809L670.261 42.4711C668.179 46.0301 667.148 50.0472 667.148 54.496H669.148ZM671.98 43.4929C673.93 40.2633 676.64 37.7317 680.134 35.8929L679.202 34.1231C675.4 36.1243 672.414 38.9047 670.268 42.4591L671.98 43.4929ZM680.146 35.8865C683.628 33.9928 687.651 33.032 692.244 33.032V31.032C687.365 31.032 683.004 32.0552 679.19 34.1295L680.146 35.8865ZM692.244 33.032C696.904 33.032 700.889 33.9942 704.233 35.8792L705.215 34.1368C701.519 32.0538 697.184 31.032 692.244 31.032V33.032ZM704.245 35.8859C707.604 37.7177 710.15 40.2385 711.911 43.456L713.665 42.496C711.714 38.9295 708.884 36.1383 705.203 34.1301L704.245 35.8859ZM711.918 43.4686C713.744 46.6956 714.668 50.3629 714.668 54.496H716.668C716.668 50.0531 715.672 46.0404 713.658 42.4834L711.918 43.4686ZM714.668 54.496C714.668 58.6288 713.744 62.3313 711.914 65.6264L713.662 66.5976C715.672 62.9807 716.668 58.9392 716.668 54.496H714.668ZM711.911 65.632C710.149 68.8525 707.598 71.4083 704.233 73.3048L705.215 75.0471C708.89 72.9757 711.715 70.1555 713.665 66.592L711.911 65.632ZM704.233 73.3048C700.892 75.1877 696.846 76.152 692.052 76.152V78.152C697.115 78.152 701.516 77.1323 705.215 75.0471L704.233 73.3048ZM692.052 76.152C687.576 76.152 683.602 75.2825 680.109 73.5664L679.227 75.3616C683.03 77.2295 687.312 78.152 692.052 78.152V76.152ZM680.115 73.5696C676.698 71.8612 674.025 69.3992 672.076 66.1711L670.364 67.2049C672.511 70.7608 675.47 73.4828 679.221 75.3584L680.115 73.5696ZM672.076 66.1711C670.139 62.9631 669.148 59.0856 669.148 54.496H667.148C667.148 59.3784 668.205 63.6289 670.364 67.2049L672.076 66.1711ZM680.684 54.592C680.684 56.9096 681.162 59.0487 682.134 60.9912L683.922 60.0968C683.102 58.4553 682.684 56.6264 682.684 54.592H680.684ZM682.14 61.0043C683.11 62.8739 684.437 64.3811 686.121 65.5041L687.231 63.84C685.843 62.9149 684.738 61.6701 683.916 60.0837L682.14 61.0043ZM686.121 65.5041C687.828 66.6421 689.751 67.208 691.86 67.208V65.208C690.129 65.208 688.596 64.7499 687.231 63.84L686.121 65.5041ZM691.86 67.208C694.14 67.208 696.164 66.6528 697.887 65.5041L696.777 63.84C695.428 64.7392 693.804 65.208 691.86 65.208V67.208ZM697.887 65.5041C699.578 64.3767 700.878 62.8606 701.785 60.9778L699.983 60.1102C699.226 61.6834 698.158 62.9193 696.777 63.8399L697.887 65.5041ZM701.791 60.9651C702.69 59.0283 703.132 56.8986 703.132 54.592H701.132C701.132 56.6374 700.742 58.4757 699.977 60.1229L701.791 60.9651ZM703.132 54.592C703.132 52.2269 702.692 50.0905 701.785 48.2062L699.983 49.0738C700.74 50.6455 701.132 52.4771 701.132 54.592H703.132ZM701.785 48.2062C700.878 46.3234 699.578 44.8073 697.887 43.6799L696.777 45.3441C698.158 46.2647 699.226 47.5006 699.983 49.0738L701.785 48.2062ZM697.887 43.68C696.164 42.5312 694.14 41.976 691.86 41.976V43.976C693.804 43.976 695.428 44.4448 696.777 45.344L697.887 43.68ZM691.86 41.976C689.751 41.976 687.828 42.5419 686.121 43.6799L687.231 45.3441C688.596 44.4341 690.129 43.976 691.86 43.976V41.976ZM686.121 43.68C684.437 44.8029 683.11 46.3101 682.14 48.1797L683.916 49.1003C684.738 47.5139 685.843 46.2691 687.231 45.344L686.121 43.68ZM682.14 48.1797C681.16 50.07 680.684 52.2161 680.684 54.592H682.684C682.684 52.4879 683.104 50.666 683.916 49.1003L682.14 48.1797ZM733.84 74.272L733.361 75.1499L733.368 75.1535L733.84 74.272ZM725.776 66.304L724.898 66.784L725.776 66.304ZM734.992 35.104L735.47 35.9826L735.481 35.976L734.992 35.104ZM761.968 37.312L761.292 38.0492L761.298 38.055L761.305 38.0608L761.968 37.312ZM769.552 52.384L769.854 53.3371L770.687 53.0726L770.537 52.2118L769.552 52.384ZM736.912 62.752L735.986 63.1297L736.335 63.9846L737.214 63.7051L736.912 62.752ZM733.936 55.456L733.616 54.5085L732.608 54.8486L733.01 55.8337L733.936 55.456ZM757.552 47.488L757.961 48.4005L757.232 46.5405L757.552 47.488ZM754.768 48.736L753.812 49.0301L754.145 50.1112L755.177 49.6485L754.768 48.736ZM751.984 44.416L751.277 45.1231L751.294 45.1408L751.313 45.1575L751.984 44.416ZM740.848 43.936L741.368 44.7903L741.378 44.784L740.848 43.936ZM737.392 47.872L736.491 47.4382L736.487 47.4455L736.484 47.4529L737.392 47.872ZM737.68 60.448L736.798 60.9202L736.802 60.927L736.806 60.9336L737.68 60.448ZM741.616 64.384L741.142 65.2645L741.616 64.384ZM751.408 64.96L751.066 64.0202L751.059 64.0228L751.052 64.0255L751.408 64.96ZM755.536 62.944L756.395 62.4319L755.874 61.5585L755.009 62.0937L755.536 62.944ZM761.488 72.928L761.984 73.7962L762.868 73.2909L762.347 72.4159L761.488 72.928ZM754.192 76L753.911 75.0402L753.904 75.0422L754.192 76ZM746.896 76.152C741.899 76.152 737.718 75.2151 734.312 73.3905L733.368 75.1535C737.13 77.1689 741.653 78.152 746.896 78.152V76.152ZM734.319 73.3941C730.96 71.5623 728.414 69.0415 726.653 65.824L724.898 66.784C726.85 70.3505 729.679 73.1417 733.361 75.1499L734.319 73.3941ZM726.653 65.824C724.888 62.599 723.992 58.8643 723.992 54.592H721.992C721.992 59.1516 722.951 63.225 724.898 66.784L726.653 65.824ZM723.992 54.592C723.992 50.5497 725.03 46.9309 727.097 43.708L725.414 42.628C723.13 46.1891 721.992 50.1863 721.992 54.592H723.992ZM727.097 43.708C729.18 40.462 731.965 37.8886 735.47 35.9825L734.514 34.2255C730.723 36.2874 727.684 39.09 725.414 42.628L727.097 43.708ZM735.481 35.976C738.969 34.0178 742.863 33.032 747.184 33.032V31.032C742.545 31.032 738.31 32.0941 734.502 34.232L735.481 35.976ZM747.184 33.032C752.991 33.032 757.665 34.7243 761.292 38.0492L762.643 36.5748C758.591 32.8597 753.409 31.032 747.184 31.032V33.032ZM761.305 38.0608C764.996 41.3285 767.442 46.1232 768.567 52.5561L770.537 52.2118C769.357 45.4608 766.747 40.2075 762.631 36.5632L761.305 38.0608ZM769.249 51.4309L736.609 61.7989L737.214 63.7051L769.854 53.3371L769.249 51.4309ZM737.838 62.3743L734.862 55.0783L733.01 55.8337L735.986 63.1297L737.838 62.3743ZM734.255 56.4035L757.871 48.4355L757.232 46.5405L733.616 54.5085L734.255 56.4035ZM757.143 46.5755L754.359 47.8235L755.177 49.6485L757.961 48.4005L757.143 46.5755ZM755.724 48.4419C755.156 46.5986 754.126 45.0061 752.655 43.6745L751.313 45.1575C752.529 46.2579 753.355 47.5454 753.812 49.0301L755.724 48.4419ZM752.691 43.7089C751.153 42.1711 748.898 41.496 746.128 41.496V43.496C748.606 43.496 750.254 44.1009 751.277 45.1231L752.691 43.7089ZM746.128 41.496C743.975 41.496 742.028 42.0193 740.318 43.088L741.378 44.784C742.74 43.9327 744.313 43.496 746.128 43.496V41.496ZM740.328 43.0818C738.673 44.0893 737.397 45.5565 736.491 47.4382L738.293 48.3058C739.051 46.7315 740.079 45.5747 741.368 44.7902L740.328 43.0818ZM736.484 47.4529C735.642 49.2776 735.24 51.4114 735.24 53.824H737.24C737.24 51.6286 737.606 49.7944 738.3 48.2911L736.484 47.4529ZM735.24 53.824C735.24 56.5662 735.741 58.9468 736.798 60.9202L738.561 59.9758C737.698 58.3652 737.24 56.3298 737.24 53.824H735.24ZM736.806 60.9336C737.854 62.8207 739.301 64.2735 741.142 65.2645L742.09 63.5035C740.602 62.7025 739.426 61.5313 738.554 59.9624L736.806 60.9336ZM741.142 65.2645C742.963 66.2454 744.984 66.728 747.184 66.728V64.728C745.287 64.728 743.596 64.3146 742.09 63.5035L741.142 65.2645ZM747.184 66.728C748.774 66.728 750.303 66.4508 751.764 65.8945L751.052 64.0255C749.824 64.4932 748.537 64.728 747.184 64.728V66.728ZM751.75 65.8998C753.225 65.3631 754.663 64.6604 756.062 63.7943L755.009 62.0937C753.721 62.8916 752.406 63.5329 751.066 64.0202L751.75 65.8998ZM754.677 63.4561L760.629 73.4401L762.347 72.4159L756.395 62.4319L754.677 63.4561ZM760.992 72.0598C758.823 73.2987 756.464 74.2929 753.911 75.0403L754.473 76.9597C757.167 76.1711 759.672 75.1173 761.984 73.7962L760.992 72.0598ZM753.904 75.0422C751.423 75.7866 749.088 76.152 746.896 76.152V78.152C749.311 78.152 751.84 77.7494 754.479 76.9578L753.904 75.0422Z" fill="#F1F1F1"/>
</svg>
