<svg width="770" height="97" viewBox="0 0 770 97" fill="none" xmlns="http://www.w3.org/2000/svg">
<path opacity="0.7" d="M36.312 8.32L35.429 10.1145L35.4405 10.1202L35.4521 10.1257L36.312 8.32ZM45.528 16.576L43.8049 17.5914L43.8089 17.5982L43.813 17.605L45.528 16.576ZM47.352 37.888L45.4387 37.3057L45.4345 37.3193L45.4306 37.3329L47.352 37.888ZM43.224 45.76L41.6705 44.5004L41.6601 44.5132L41.6499 44.5262L43.224 45.76ZM35.64 51.52L36.4592 53.3445L36.4675 53.3408L36.4758 53.337L35.64 51.52ZM14.04 53.632V51.632H12.04V53.632H14.04ZM14.04 76V78H16.04V76H14.04ZM0.120001 76H-1.88V78H0.120001V76ZM0.120001 5.34399V3.34399H-1.88V5.34399H0.120001ZM29.208 39.04L30.1024 40.8289L30.1344 40.8129L30.1657 40.7958L29.208 39.04ZM32.472 36.256L30.8506 35.085L30.8443 35.0938L30.8381 35.1026L32.472 36.256ZM34.2 32.704L32.2928 32.1017L32.2782 32.148L32.2659 32.195L34.2 32.704ZM34.392 26.752L32.4165 27.0639L32.4262 27.1253L32.4396 27.1859L34.392 26.752ZM33.048 23.104L31.3172 24.1061V24.1061L33.048 23.104ZM29.784 20.032L28.7665 21.7539L28.7831 21.7637L28.7999 21.7731L29.784 20.032ZM14.04 18.784V16.784H12.04V18.784H14.04ZM14.04 40.096H12.04V42.096H14.04V40.096ZM21.528 7.34399C27.1332 7.34399 31.7406 8.29961 35.429 10.1145L37.195 6.52548C32.8194 4.37238 27.5708 3.34399 21.528 3.34399V7.34399ZM35.4521 10.1257C39.1518 11.8875 41.9105 14.3766 43.8049 17.5914L47.2511 15.5606C44.9215 11.6074 41.5362 8.59252 37.1719 6.51428L35.4521 10.1257ZM43.813 17.605C45.7066 20.7609 46.696 24.5829 46.696 29.152H50.696C50.696 23.9931 49.5734 19.4311 47.243 15.547L43.813 17.605ZM46.696 29.152C46.696 31.8216 46.2811 34.5375 45.4387 37.3057L49.2654 38.4703C50.2149 35.3505 50.696 32.2424 50.696 29.152H46.696ZM45.4306 37.3329C44.6741 39.9514 43.4249 42.3366 41.6705 44.5004L44.7775 47.0196C46.8631 44.4474 48.3659 41.5846 49.2734 38.4431L45.4306 37.3329ZM41.6499 44.5262C40.0211 46.6044 37.7645 48.3413 34.8042 49.703L36.4758 53.337C39.9155 51.7547 42.715 49.6516 44.7981 46.9938L41.6499 44.5262ZM34.8208 49.6955C32.0143 50.9555 28.4407 51.632 24.024 51.632V55.632C28.8233 55.632 32.9937 54.9005 36.4592 53.3445L34.8208 49.6955ZM24.024 51.632H14.04V55.632H24.024V51.632ZM12.04 53.632V76H16.04V53.632H12.04ZM14.04 74H0.120001V78H14.04V74ZM2.12 76V5.34399H-1.88V76H2.12ZM0.120001 7.34399H21.528V3.34399H0.120001V7.34399ZM23.928 42.096C26.2493 42.096 28.3385 41.7108 30.1024 40.8289L28.3136 37.2511C27.2615 37.7772 25.8307 38.096 23.928 38.096V42.096ZM30.1657 40.7958C31.788 39.9109 33.1291 38.7932 34.1059 37.4094L30.8381 35.1026C30.2789 35.8948 29.444 36.6331 28.2503 37.2842L30.1657 40.7958ZM34.0934 37.427C35.0509 36.1012 35.7439 34.6959 36.1342 33.213L32.2659 32.195C32.0161 33.1441 31.5571 34.1068 30.8506 35.085L34.0934 37.427ZM36.1072 33.3063C36.5289 31.9707 36.776 30.7026 36.776 29.536H32.776C32.776 30.1614 32.6391 31.0053 32.2928 32.1017L36.1072 33.3063ZM36.776 29.536C36.776 28.6211 36.6139 27.5308 36.3444 26.3181L32.4396 27.1859C32.6821 28.2772 32.776 29.0429 32.776 29.536H36.776ZM36.3675 26.4401C36.1321 24.9491 35.5889 23.5012 34.7789 22.1019L31.3172 24.1061C31.9151 25.1388 32.2679 26.1229 32.4165 27.0639L36.3675 26.4401ZM34.7789 22.1019C33.8631 20.5201 32.4872 19.2625 30.7681 18.2909L28.7999 21.7731C30.0248 22.4655 30.8249 23.2559 31.3172 24.1061L34.7789 22.1019ZM30.8015 18.3101C28.9705 17.2282 26.6517 16.784 24.024 16.784V20.784C26.2603 20.784 27.7815 21.1718 28.7665 21.7539L30.8015 18.3101ZM24.024 16.784H14.04V20.784H24.024V16.784ZM12.04 18.784V40.096H16.04V18.784H12.04ZM14.04 42.096H23.928V38.096H14.04V42.096ZM71.0393 34.048L73.0276 33.8326L72.8343 32.048H71.0393V34.048ZM72.2873 45.568L70.3145 45.8968L74.2756 45.3526L72.2873 45.568ZM71.9993 43.84L70.2013 42.9641L69.9214 43.5385L70.0265 44.1688L71.9993 43.84ZM76.9912 37.504L78.2577 39.0519L78.2716 39.0406L78.2852 39.029L76.9912 37.504ZM83.2313 33.376L82.4036 31.5553L82.393 31.5601L82.3824 31.5651L83.2313 33.376ZM88.0312 31.936L90.0288 32.0359L90.1338 29.936H88.0312V31.936ZM87.3593 45.376L87.1162 47.3612L89.2494 47.6224L89.3568 45.4759L87.3593 45.376ZM79.2952 46.912L80.3596 48.6053L79.2952 46.912ZM74.1113 52.48L72.3425 51.5465L74.1113 52.48ZM72.2873 76V78H74.2873V76H72.2873ZM58.9433 76H56.9433V78H58.9433V76ZM58.9433 34.048V32.048H56.9433V34.048H58.9433ZM69.0509 34.2634L70.2989 45.7834L74.2756 45.3526L73.0276 33.8326L69.0509 34.2634ZM74.26 45.2392L73.972 43.5112L70.0265 44.1688L70.3145 45.8968L74.26 45.2392ZM73.7972 44.7159C74.889 42.475 76.3733 40.5937 78.2577 39.0519L75.7248 35.9561C73.3852 37.8703 71.5415 40.213 70.2013 42.9641L73.7972 44.7159ZM78.2852 39.029C80.2912 37.327 82.2236 36.0571 84.0801 35.1869L82.3824 31.5651C80.1429 32.6149 77.9153 34.097 75.6973 35.979L78.2852 39.029ZM84.0589 35.1967C86.1398 34.2508 87.4033 33.936 88.0312 33.936V29.936C86.4832 29.936 84.5467 30.5812 82.4036 31.5553L84.0589 35.1967ZM86.0337 31.8361L85.3617 45.2761L89.3568 45.4759L90.0288 32.0359L86.0337 31.8361ZM87.6023 43.3908C84.1021 42.9622 80.9322 43.5208 78.2309 45.2187L80.3596 48.6053C82.1383 47.4872 84.3444 47.0218 87.1162 47.3612L87.6023 43.3908ZM78.2309 45.2187C75.6983 46.8106 73.7251 48.9267 72.3425 51.5465L75.88 53.4135C76.9294 51.4253 78.4122 49.8293 80.3596 48.6053L78.2309 45.2187ZM72.3425 51.5465C70.9857 54.1172 70.2873 56.8037 70.2873 59.584H74.2873C74.2873 57.5003 74.8048 55.4508 75.88 53.4135L72.3425 51.5465ZM70.2873 59.584V76H74.2873V59.584H70.2873ZM72.2873 74H58.9433V78H72.2873V74ZM60.9433 76V34.048H56.9433V76H60.9433ZM58.9433 36.048H71.0393V32.048H58.9433V36.048ZM96.1553 42.976L94.4431 41.9423L94.4359 41.9542L94.4289 41.9662L96.1553 42.976ZM104.699 35.008L105.631 36.7778L105.643 36.7715L105.655 36.765L104.699 35.008ZM129.755 35.008L128.773 36.7503L128.785 36.7571L128.798 36.7638L129.755 35.008ZM137.819 42.976L136.065 43.936L136.072 43.9487L136.079 43.9612L137.819 42.976ZM137.819 66.112L136.071 65.1407L136.065 65.152L137.819 66.112ZM129.755 74.176L128.773 72.4337L129.755 74.176ZM104.699 74.464L103.805 76.2529L103.817 76.2591L104.699 74.464ZM96.2513 66.688L94.5391 67.7217L96.2513 66.688ZM108.059 60.544L106.27 61.4384L106.277 61.4516L106.284 61.4646L108.059 60.544ZM111.707 64.672L110.598 66.3361L111.707 64.672ZM122.363 64.672L121.254 63.0079V63.0079L122.363 64.672ZM125.915 60.544L127.717 61.4116L127.723 61.399L127.729 61.3862L125.915 60.544ZM125.915 48.64L124.113 49.5076L125.915 48.64ZM122.363 44.512L121.254 46.1761V46.1761L122.363 44.512ZM111.707 44.512L110.598 42.8479V42.8479L111.707 44.512ZM108.059 48.64L106.284 47.7194V47.7194L108.059 48.64ZM95.1793 54.496C95.1793 50.5295 96.0929 47.0438 97.8816 43.9858L94.4289 41.9662C92.2496 45.6922 91.1793 49.8865 91.1793 54.496H95.1793ZM97.8674 44.0097C99.7193 40.9426 102.292 38.5353 105.631 36.7778L103.768 33.2382C99.811 35.3207 96.6872 38.2254 94.4431 41.9423L97.8674 44.0097ZM105.655 36.765C108.971 34.9617 112.826 34.032 117.275 34.032V30.032C112.253 30.032 107.724 31.0863 103.744 33.251L105.655 36.765ZM117.275 34.032C121.796 34.032 125.605 34.9644 128.773 36.7503L130.737 33.2657C126.866 31.0836 122.355 30.032 117.275 30.032V34.032ZM128.798 36.7638C131.994 38.5075 134.4 40.893 136.065 43.936L139.574 42.016C137.527 38.275 134.556 35.3485 130.713 33.2522L128.798 36.7638ZM136.079 43.9612C137.812 47.0233 138.699 50.5178 138.699 54.496H142.699C142.699 49.8982 141.667 45.7127 139.56 41.9908L136.079 43.9612ZM138.699 54.496C138.699 58.4737 137.812 62.0066 136.071 65.1407L139.568 67.0833C141.666 63.3054 142.699 59.0943 142.699 54.496H138.699ZM136.065 65.152C134.396 68.201 131.983 70.6245 128.773 72.4337L130.737 75.9183C134.567 73.7595 137.53 70.807 139.574 67.072L136.065 65.152ZM128.773 72.4337C125.612 74.2154 121.742 75.152 117.083 75.152V79.152C122.28 79.152 126.858 78.1046 130.737 75.9183L128.773 72.4337ZM117.083 75.152C112.74 75.152 108.92 74.3091 105.581 72.6689L103.817 76.2591C107.775 78.2029 112.211 79.152 117.083 79.152V75.152ZM105.594 72.6751C102.344 71.0504 99.8134 68.7184 97.9634 65.6543L94.5391 67.7217C96.7851 71.4416 99.8863 74.2936 103.805 76.2529L105.594 72.6751ZM97.9634 65.6543C96.1376 62.6303 95.1793 58.9392 95.1793 54.496H91.1793C91.1793 59.5248 92.2689 63.9617 94.5391 67.7217L97.9634 65.6543ZM104.715 54.592C104.715 57.0512 105.224 59.3453 106.27 61.4384L109.848 59.6496C109.103 58.1587 108.715 56.4848 108.715 54.592H104.715ZM106.284 61.4646C107.327 63.4759 108.765 65.1143 110.598 66.3361L112.817 63.0079C111.577 62.1817 110.584 61.0681 109.835 59.6234L106.284 61.4646ZM110.598 66.3361C112.476 67.5882 114.593 68.208 116.891 68.208V64.208C115.349 64.208 114.01 63.8038 112.817 63.0079L110.598 66.3361ZM116.891 68.208C119.34 68.208 121.563 67.6095 123.473 66.3361L121.254 63.0079C120.092 63.7825 118.667 64.208 116.891 64.208V68.208ZM123.473 66.3361C125.319 65.1055 126.736 63.4492 127.717 61.4116L124.113 59.6764C123.43 61.0948 122.48 62.1905 121.254 63.0079L123.473 66.3361ZM127.729 61.3862C128.696 59.3046 129.163 57.0291 129.163 54.592H125.163C125.163 56.5069 124.799 58.1994 124.101 59.7018L127.729 61.3862ZM129.163 54.592C129.163 52.1018 128.7 49.8129 127.717 47.7724L124.113 49.5076C124.795 50.9231 125.163 52.6022 125.163 54.592H129.163ZM127.717 47.7724C126.736 45.7348 125.319 44.0785 123.473 42.8479L121.254 46.1761C122.48 46.9935 123.43 48.0892 124.113 49.5076L127.717 47.7724ZM123.473 42.8479C121.563 41.5745 119.34 40.976 116.891 40.976V44.976C118.667 44.976 120.092 45.4015 121.254 46.1761L123.473 42.8479ZM116.891 40.976C114.593 40.976 112.476 41.5958 110.598 42.8479L112.817 46.1761C114.01 45.3802 115.349 44.976 116.891 44.976V40.976ZM110.598 42.8479C108.765 44.0697 107.327 45.7081 106.284 47.7194L109.835 49.5606C110.584 48.1159 111.577 47.0023 112.817 46.1761L110.598 42.8479ZM106.284 47.7194C105.219 49.772 104.715 52.0801 104.715 54.592H108.715C108.715 52.6239 109.107 50.964 109.835 49.5606L106.284 47.7194ZM154.071 96.256L152.607 97.6188L153.588 98.6724L154.899 98.0767L154.071 96.256ZM146.295 87.904L145.112 86.2912L143.299 87.621L144.831 89.2668L146.295 87.904ZM150.711 82.72L148.945 81.7817L148.933 81.8035L148.922 81.8256L150.711 82.72ZM152.343 34.048V32.048H150.343V34.048H152.343ZM165.783 34.048H167.783V32.048H165.783V34.048ZM163.095 88.384L161.342 87.4215L161.338 87.4286L161.334 87.4358L163.095 88.384ZM154.167 14.272L152.918 12.7103L152.902 12.7228L152.887 12.7356L154.167 14.272ZM164.151 14.272L162.839 15.7812L162.854 15.795L162.871 15.8084L164.151 14.272ZM164.151 24.064L165.425 25.6059L165.431 25.6004L164.151 24.064ZM154.167 24.064L152.887 25.6004L152.921 25.6292L152.957 25.6563L154.167 24.064ZM155.535 94.8932L147.759 86.5412L144.831 89.2668L152.607 97.6188L155.535 94.8932ZM147.478 89.5168C149.643 87.9286 151.328 85.9581 152.5 83.6144L148.922 81.8256C148.046 83.5779 146.787 85.0634 145.112 86.2912L147.478 89.5168ZM152.477 83.6583C153.755 81.2539 154.343 78.4171 154.343 75.232H150.343C150.343 77.9349 149.843 80.0901 148.945 81.7817L152.477 83.6583ZM154.343 75.232V34.048H150.343V75.232H154.343ZM152.343 36.048H165.783V32.048H152.343V36.048ZM163.783 34.048V76H167.783V34.048H163.783ZM163.783 76C163.783 80.7657 162.926 84.5359 161.342 87.4215L164.848 89.3465C166.848 85.7041 167.783 81.2183 167.783 76H163.783ZM161.334 87.4358C159.793 90.2978 157.162 92.6541 153.243 94.4353L154.899 98.0767C159.428 96.0179 162.813 93.1262 164.856 89.3322L161.334 87.4358ZM153.863 19.168C153.863 17.7829 154.363 16.7119 155.447 15.8084L152.887 12.7356C150.899 14.3921 149.863 16.5851 149.863 19.168H153.863ZM155.416 15.8337C156.715 14.7946 157.981 14.352 159.255 14.352V10.352C156.945 10.352 154.819 11.1894 152.918 12.7103L155.416 15.8337ZM159.255 14.352C160.52 14.352 161.696 14.7874 162.839 15.7812L165.463 12.7628C163.662 11.1965 161.574 10.352 159.255 10.352V14.352ZM162.871 15.8084C163.955 16.7119 164.455 17.7829 164.455 19.168H168.455C168.455 16.5851 167.419 14.3921 165.431 12.7356L162.871 15.8084ZM164.455 19.168C164.455 20.5531 163.955 21.6241 162.871 22.5276L165.431 25.6004C167.419 23.9439 168.455 21.7509 168.455 19.168H164.455ZM162.877 22.5221C161.738 23.4629 160.55 23.888 159.255 23.888V27.888C161.544 27.888 163.62 27.0971 165.425 25.6059L162.877 22.5221ZM159.255 23.888C157.953 23.888 156.674 23.457 155.377 22.4717L152.957 25.6563C154.86 27.103 156.973 27.888 159.255 27.888V23.888ZM155.447 22.5276C154.363 21.6241 153.863 20.5531 153.863 19.168H149.863C149.863 21.7509 150.899 23.9439 152.887 25.6004L155.447 22.5276ZM187.184 74.272L186.226 76.0278L186.232 76.0314L186.239 76.035L187.184 74.272ZM179.12 66.304L177.365 67.264L179.12 66.304ZM188.335 35.104L189.291 36.861L189.303 36.8545L189.315 36.848L188.335 35.104ZM215.312 37.312L213.96 38.7863L213.973 38.798L213.986 38.8095L215.312 37.312ZM222.896 52.384L223.501 54.2901L225.166 53.7611L224.866 52.0397L222.896 52.384ZM190.256 62.752L188.404 63.5074L189.101 65.2172L190.861 64.6581L190.256 62.752ZM187.279 55.456L186.64 53.561L184.624 54.2412L185.428 56.2114L187.279 55.456ZM210.896 47.488L211.714 49.313L210.256 45.593L210.896 47.488ZM208.111 48.736L206.2 49.3242L206.865 51.4864L208.93 50.561L208.111 48.736ZM205.327 44.416L203.913 45.8302L203.949 45.8655L203.986 45.8991L205.327 44.416ZM194.191 43.936L195.231 45.6444L195.241 45.6383L195.251 45.632L194.191 43.936ZM190.736 47.872L188.934 47.0044L188.926 47.0191L188.92 47.0339L190.736 47.872ZM191.023 60.448L189.261 61.3924L189.268 61.4059L189.275 61.4193L191.023 60.448ZM194.96 64.384L194.011 66.1449L194.96 64.384ZM204.751 64.96L204.068 63.0804L204.054 63.0856L204.04 63.091L204.751 64.96ZM208.88 62.944L210.597 61.9199L209.556 60.173L207.827 61.2435L208.88 62.944ZM214.831 72.928L215.824 74.6645L217.593 73.6537L216.549 71.9039L214.831 72.928ZM207.536 76L206.974 74.0805L206.961 74.0844L207.536 76ZM200.24 75.152C195.365 75.152 191.356 74.2382 188.128 72.509L186.239 76.035C190.179 78.1458 194.874 79.152 200.24 79.152V75.152ZM188.141 72.5162C184.944 70.7725 182.539 68.387 180.874 65.344L177.365 67.264C179.412 71.005 182.383 73.9315 186.226 76.0278L188.141 72.5162ZM180.874 65.344C179.201 62.2859 178.335 58.7207 178.335 54.592H174.335C174.335 59.2953 175.326 63.5381 177.365 67.264L180.874 65.344ZM178.335 54.592C178.335 50.7315 179.324 47.3017 181.283 44.2479L177.916 42.0881C175.523 45.8183 174.335 50.0045 174.335 54.592H178.335ZM181.283 44.2479C183.271 41.1481 185.929 38.6892 189.291 36.861L187.38 33.347C183.446 35.4868 180.28 38.4039 177.916 42.0881L181.283 44.2479ZM189.315 36.848C192.642 34.9797 196.365 34.032 200.527 34.032V30.032C195.73 30.032 191.325 31.1323 187.356 33.36L189.315 36.848ZM200.527 34.032C206.126 34.032 210.546 35.6565 213.96 38.7863L216.663 35.8377C212.397 31.9275 206.961 30.032 200.527 30.032V34.032ZM213.986 38.8095C217.464 41.889 219.829 46.4543 220.925 52.7283L224.866 52.0397C223.658 45.1297 220.967 39.647 216.637 35.8145L213.986 38.8095ZM222.29 50.4779L189.65 60.8459L190.861 64.6581L223.501 54.2901L222.29 50.4779ZM192.107 61.9966L189.131 54.7006L185.428 56.2114L188.404 63.5074L192.107 61.9966ZM187.919 57.351L211.535 49.383L210.256 45.593L186.64 53.561L187.919 57.351ZM210.077 45.663L207.293 46.911L208.93 50.561L211.714 49.313L210.077 45.663ZM210.023 48.1478C209.401 46.1252 208.269 44.3801 206.669 42.9329L203.986 45.8991C205.074 46.8839 205.798 48.0188 206.2 49.3242L210.023 48.1478ZM206.742 43.0018C204.946 41.2062 202.387 40.496 199.471 40.496V44.496C201.804 44.496 203.149 45.0658 203.913 45.8302L206.742 43.0018ZM199.471 40.496C197.15 40.496 195.015 41.0626 193.132 42.24L195.251 45.632C196.44 44.8894 197.825 44.496 199.471 44.496V40.496ZM193.152 42.2276C191.313 43.3466 189.913 44.9691 188.934 47.0044L192.538 48.7396C193.222 47.3189 194.126 46.3173 195.231 45.6444L193.152 42.2276ZM188.92 47.0339C188.003 49.0191 187.583 51.3028 187.583 53.824H191.583C191.583 51.7372 191.932 50.0529 192.551 48.7101L188.92 47.0339ZM187.583 53.824C187.583 56.6844 188.106 59.2377 189.261 61.3924L192.786 59.5036C192.021 58.0743 191.583 56.2116 191.583 53.824H187.583ZM189.275 61.4193C190.412 63.4654 191.995 65.0591 194.011 66.1449L195.908 62.6231C194.596 61.9169 193.555 60.8866 192.772 59.4767L189.275 61.4193ZM194.011 66.1449C195.991 67.2108 198.177 67.728 200.527 67.728V63.728C198.782 63.728 197.256 63.3492 195.908 62.6231L194.011 66.1449ZM200.527 67.728C202.237 67.728 203.887 67.4296 205.463 66.829L204.04 63.091C202.928 63.5144 201.762 63.728 200.527 63.728V67.728ZM205.435 66.8396C206.979 66.2782 208.478 65.5448 209.932 64.6445L207.827 61.2435C206.593 62.0072 205.34 62.6178 204.068 63.0804L205.435 66.8396ZM207.162 63.9681L213.114 73.9521L216.549 71.9039L210.597 61.9199L207.162 63.9681ZM213.839 71.1915C211.743 72.3894 209.456 73.3539 206.974 74.0805L208.097 77.9195C210.863 77.1101 213.44 76.0266 215.824 74.6645L213.839 71.1915ZM206.961 74.0844C204.558 74.8051 202.321 75.152 200.24 75.152V79.152C202.766 79.152 205.393 78.7309 208.11 77.9156L206.961 74.0844ZM268.278 72.256L269.521 73.823L271.09 72.5784L269.843 71.011L268.278 72.256ZM261.27 75.808L260.664 73.9021L260.651 73.9063L261.27 75.808ZM240.534 74.56L239.627 76.3423L239.646 76.3521L239.665 76.3615L240.534 74.56ZM232.278 66.976L230.546 67.9754L230.557 67.9953L230.569 68.0148L232.278 66.976ZM232.566 43.072L234.245 44.1585L234.25 44.1511L234.255 44.1436L232.566 43.072ZM240.822 35.488L239.928 33.6991L239.921 33.7025L239.914 33.7059L240.822 35.488ZM261.462 34.432L260.765 36.3064L260.772 36.309L260.779 36.3116L261.462 34.432ZM268.662 38.464L270.258 39.6697L271.404 38.1531L269.947 36.9316L268.662 38.464ZM262.134 47.104L260.898 48.6766L262.501 49.9359L263.73 48.3097L262.134 47.104ZM258.39 44.992L257.496 46.7809L257.54 46.8028L257.585 46.8226L258.39 44.992ZM247.83 45.28L246.77 43.584V43.584L247.83 45.28ZM244.182 49.216L242.421 48.2678L244.182 49.216ZM244.278 60.64L246.026 59.6687L244.278 60.64ZM248.214 64.768L247.166 66.4713L247.204 66.4947L247.243 66.5163L248.214 64.768ZM258.294 65.632L258.896 67.5392L258.926 67.5299L258.955 67.5197L258.294 65.632ZM261.558 63.808L263.123 62.563L261.832 60.9393L260.256 62.2895L261.558 63.808ZM267.035 70.689C265.41 71.9783 263.304 73.0621 260.664 73.9021L261.876 77.7139C264.868 76.7619 267.434 75.4777 269.521 73.823L267.035 70.689ZM260.651 73.9063C258.083 74.7421 255.572 75.152 253.11 75.152V79.152C256.024 79.152 258.953 78.6658 261.889 77.7097L260.651 73.9063ZM253.11 75.152C248.55 75.152 244.665 74.3316 241.403 72.7585L239.665 76.3615C243.571 78.2444 248.07 79.152 253.11 79.152V75.152ZM241.441 72.7777C238.241 71.1482 235.771 68.8725 233.987 65.9372L230.569 68.0148C232.753 71.6075 235.787 74.3878 239.627 76.3423L241.441 72.7777ZM234.01 65.9766C232.3 63.0118 231.398 59.3727 231.398 54.976H227.398C227.398 59.9233 228.416 64.2842 230.546 67.9754L234.01 65.9766ZM231.398 54.976C231.398 50.6109 232.382 47.0386 234.245 44.1585L230.887 41.9855C228.526 45.6334 227.398 49.9971 227.398 54.976H231.398ZM234.255 44.1436C236.182 41.1069 238.669 38.8295 241.73 37.2701L239.914 33.7059C236.191 35.6025 233.174 38.3811 230.877 42.0003L234.255 44.1436ZM241.716 37.2769C244.901 35.6844 248.212 34.896 251.67 34.896V30.896C247.576 30.896 243.655 31.8356 239.928 33.6991L241.716 37.2769ZM251.67 34.896C255.273 34.896 258.289 35.3854 260.765 36.3064L262.159 32.5576C259.131 31.4306 255.619 30.896 251.67 30.896V34.896ZM260.779 36.3116C263.409 37.2682 265.597 38.5039 267.377 39.9964L269.947 36.9316C267.759 35.0961 265.147 33.6438 262.145 32.5524L260.779 36.3116ZM267.066 37.2583L260.538 45.8983L263.73 48.3097L270.258 39.6697L267.066 37.2583ZM263.37 45.5314C262.291 44.6841 260.877 43.9011 259.195 43.1614L257.585 46.8226C259.103 47.4909 260.185 48.1159 260.898 48.6766L263.37 45.5314ZM259.284 43.2031C257.414 42.268 255.27 41.84 252.918 41.84V45.84C254.79 45.84 256.294 46.18 257.496 46.7809L259.284 43.2031ZM252.918 41.84C250.697 41.84 248.632 42.4202 246.77 43.584L248.89 46.976C250.1 46.2198 251.427 45.84 252.918 45.84V41.84ZM246.77 43.584C244.926 44.7363 243.474 46.3117 242.421 48.2678L245.943 50.1642C246.682 48.7923 247.662 47.7437 248.89 46.976L246.77 43.584ZM242.421 48.2678C241.346 50.2647 240.838 52.5195 240.838 54.976H244.838C244.838 53.0805 245.226 51.4953 245.943 50.1642L242.421 48.2678ZM240.838 54.976C240.838 57.3511 241.399 59.5752 242.53 61.6113L246.026 59.6687C245.237 58.2488 244.838 56.6969 244.838 54.976H240.838ZM242.53 61.6113C243.654 63.6356 245.206 65.2652 247.166 66.4713L249.262 63.0647C247.894 62.2228 246.822 61.1004 246.026 59.6687L242.53 61.6113ZM247.243 66.5163C249.314 67.6669 251.675 68.208 254.262 68.208V64.208C252.241 64.208 250.57 63.7891 249.185 63.0197L247.243 66.5163ZM254.262 68.208C255.907 68.208 257.458 67.9933 258.896 67.5392L257.692 63.7248C256.698 64.0387 255.561 64.208 254.262 64.208V68.208ZM258.955 67.5197C260.435 67.0017 261.749 66.2786 262.86 65.3265L260.256 62.2895C259.575 62.8734 258.713 63.3663 257.633 63.7443L258.955 67.5197ZM259.993 65.053L266.713 73.501L269.843 71.011L263.123 62.563L259.993 65.053ZM282.535 15.616V13.616H280.535V15.616H282.535ZM295.975 15.616H297.975V13.616H295.975V15.616ZM295.975 33.856H293.975V35.856H295.975V33.856ZM306.151 33.856H308.151V31.856H306.151V33.856ZM306.151 44.32V46.32H308.151V44.32H306.151ZM295.975 44.32V42.32H293.975V44.32H295.975ZM295.975 76V78H297.975V76H295.975ZM282.535 76H280.535V78H282.535V76ZM282.535 44.32H284.535V42.32H282.535V44.32ZM276.008 44.32H274.008V46.32H276.008V44.32ZM276.008 33.856V31.856H274.008V33.856H276.008ZM282.535 33.856V35.856H284.535V33.856H282.535ZM282.535 17.616H295.975V13.616H282.535V17.616ZM293.975 15.616V33.856H297.975V15.616H293.975ZM295.975 35.856H306.151V31.856H295.975V35.856ZM304.151 33.856V44.32H308.151V33.856H304.151ZM306.151 42.32H295.975V46.32H306.151V42.32ZM293.975 44.32V76H297.975V44.32H293.975ZM295.975 74H282.535V78H295.975V74ZM284.535 76V44.32H280.535V76H284.535ZM282.535 42.32H276.008V46.32H282.535V42.32ZM278.008 44.32V33.856H274.008V44.32H278.008ZM276.008 35.856H282.535V31.856H276.008V35.856ZM284.535 33.856V15.616H280.535V33.856H284.535ZM387.535 22.432L386.575 24.1862L388.402 25.187L389.328 23.32L387.535 22.432ZM379.28 18.784L378.621 20.6724L378.627 20.6747L378.634 20.677L379.28 18.784ZM364.4 19.168L363.249 17.5324V17.5324L364.4 19.168ZM363.728 29.152L362.279 30.5313L362.313 30.5666L362.348 30.6003L363.728 29.152ZM368.815 32.608L367.921 34.3969L367.932 34.4023L367.943 34.4076L368.815 32.608ZM375.344 35.392L376.046 33.5193L376.04 33.5171L375.344 35.392ZM381.392 38.176L380.43 39.9296L380.463 39.9479L380.497 39.9649L381.392 38.176ZM386.863 42.112L385.449 43.5262L385.464 43.5406L385.478 43.5548L386.863 42.112ZM390.703 47.968L388.85 48.7194L388.854 48.7283L388.857 48.7372L390.703 47.968ZM389.359 66.496L391.071 67.5302L389.359 66.496ZM381.199 73.984L382.119 75.76L382.132 75.7536L382.144 75.747L381.199 73.984ZM359.695 76L359.286 77.9576L359.312 77.963L359.338 77.9677L359.695 76ZM351.535 73.504L350.748 75.3423L350.766 75.3503L350.785 75.3579L351.535 73.504ZM343.759 69.184L342.019 68.1984L341.119 69.7883L342.621 70.8284L343.759 69.184ZM349.904 58.336L351.084 56.7212L349.27 55.396L348.163 57.3504L349.904 58.336ZM355.28 61.6L354.385 63.3889L354.42 63.4065L354.456 63.4227L355.28 61.6ZM361.232 63.712L361.731 61.7754L361.232 63.712ZM371.695 63.808L372.215 65.7392L372.24 65.7327L372.264 65.7256L371.695 63.808ZM375.919 61.312L374.505 59.8978L374.485 59.918L374.465 59.9388L375.919 61.312ZM376.207 52.672L374.629 53.8999L374.649 53.9265L374.671 53.9524L376.207 52.672ZM372.464 49.504L371.404 51.2L371.419 51.2096L371.435 51.219L372.464 49.504ZM367.375 47.008L366.661 48.8761L366.666 48.878L367.375 47.008ZM360.655 44.128L359.801 45.9365L360.655 44.128ZM354.128 40.192L352.872 41.7488L352.899 41.7709L352.927 41.792L354.128 40.192ZM349.232 34.336L347.452 35.2496L347.467 35.2787L347.483 35.3073L349.232 34.336ZM350.095 15.04L348.393 13.9898L348.385 14.003L348.377 14.0164L350.095 15.04ZM357.871 7.936L358.793 9.71099L358.806 9.70406L358.82 9.69694L357.871 7.936ZM369.392 4.96V2.96H369.347L369.303 2.96194L369.392 4.96ZM383.216 6.976L382.502 8.84447L382.513 8.84865L383.216 6.976ZM392.815 11.776L394.608 12.664L395.393 11.0793L393.916 10.1061L392.815 11.776ZM388.496 20.6778C385.71 19.1522 382.853 17.8892 379.925 16.891L378.634 20.677C381.338 21.5988 383.985 22.7678 386.575 24.1862L388.496 20.6778ZM379.938 16.8956C377.015 15.876 374.199 15.344 371.504 15.344V19.344C373.672 19.344 376.04 19.772 378.621 20.6724L379.938 16.8956ZM371.504 15.344C368.251 15.344 365.429 15.9981 363.249 17.5324L365.55 20.8036C366.826 19.9059 368.74 19.344 371.504 19.344V15.344ZM363.249 17.5324C360.902 19.1837 359.807 21.6704 359.807 24.64H363.807C363.807 22.7456 364.441 21.5843 365.55 20.8036L363.249 17.5324ZM359.807 24.64C359.807 26.8785 360.689 28.862 362.279 30.5313L365.176 27.7727C364.206 26.754 363.807 25.7295 363.807 24.64H359.807ZM362.348 30.6003C363.865 32.0449 365.735 33.3039 367.921 34.3969L369.71 30.8191C367.8 29.8641 366.278 28.8191 365.107 27.7037L362.348 30.6003ZM367.943 34.4076C370.113 35.46 372.348 36.413 374.647 37.2668L376.04 33.5171C373.859 32.707 371.742 31.804 369.688 30.8084L367.943 34.4076ZM374.641 37.2647C376.597 37.9981 378.526 38.8859 380.43 39.9296L382.353 36.4224C380.289 35.2901 378.186 34.3219 376.046 33.5193L374.641 37.2647ZM380.497 39.9649C382.355 40.8939 384.003 42.08 385.449 43.5262L388.278 40.6978C386.524 38.944 384.524 37.5061 382.286 36.3871L380.497 39.9649ZM385.478 43.5548C386.847 44.8684 387.98 46.5728 388.85 48.7194L392.557 47.2166C391.507 44.6272 390.08 42.4276 388.249 40.6692L385.478 43.5548ZM388.857 48.7372C389.686 50.7269 390.143 53.295 390.143 56.512H394.143C394.143 52.945 393.641 49.8171 392.55 47.1988L388.857 48.7372ZM390.143 56.512C390.143 59.7309 389.315 62.7013 387.648 65.4618L391.071 67.5302C393.116 64.1467 394.143 60.4611 394.143 56.512H390.143ZM387.648 65.4618C386.001 68.1872 383.565 70.4476 380.255 72.221L382.144 75.747C386.002 73.6804 389.006 70.9488 391.071 67.5302L387.648 65.4618ZM380.28 72.208C377.052 73.8793 372.972 74.768 367.952 74.768V78.768C373.427 78.768 378.179 77.8007 382.119 75.76L380.28 72.208ZM367.952 74.768C365.391 74.768 362.759 74.5242 360.053 74.0323L359.338 77.9677C362.264 78.4998 365.136 78.768 367.952 78.768V74.768ZM360.105 74.0424C357.473 73.4915 354.867 72.6949 352.286 71.6501L350.785 75.3579C353.58 76.4891 356.414 77.3565 359.286 77.9576L360.105 74.0424ZM352.323 71.6657C349.763 70.5684 347.288 69.1943 344.898 67.5396L342.621 70.8284C345.223 72.6297 347.932 74.1356 350.748 75.3423L352.323 71.6657ZM345.5 70.1696L351.644 59.3216L348.163 57.3504L342.019 68.1984L345.5 70.1696ZM348.723 59.9508C350.481 61.2353 352.369 62.381 354.385 63.3889L356.174 59.8111C354.35 58.899 352.654 57.8686 351.084 56.7212L348.723 59.9508ZM354.456 63.4227C356.538 64.363 358.63 65.1062 360.732 65.6486L361.731 61.7754C359.865 61.2938 357.989 60.629 356.103 59.7773L354.456 63.4227ZM360.732 65.6486C362.843 66.1934 364.837 66.48 366.703 66.48V62.48C365.242 62.48 363.588 62.2546 361.731 61.7754L360.732 65.6486ZM366.703 66.48C368.549 66.48 370.388 66.2312 372.215 65.7392L371.176 61.8768C369.675 62.2808 368.186 62.48 366.703 62.48V66.48ZM372.264 65.7256C374.283 65.1274 376.012 64.1272 377.374 62.6852L374.465 59.9388C373.651 60.8008 372.564 61.4646 371.127 61.8904L372.264 65.7256ZM377.334 62.7262C378.952 61.1084 379.647 58.9467 379.647 56.512H375.647C375.647 58.1733 375.191 59.2116 374.505 59.8978L377.334 62.7262ZM379.647 56.512C379.647 54.6043 378.982 52.8778 377.744 51.3916L374.671 53.9524C375.353 54.7702 375.647 55.6037 375.647 56.512H379.647ZM377.786 51.4441C376.703 50.0513 375.248 48.8422 373.492 47.789L371.435 51.219C372.879 52.0858 373.92 52.9887 374.629 53.8999L377.786 51.4441ZM373.523 47.808C371.867 46.7724 370.052 45.884 368.085 45.138L366.666 48.878C368.411 49.54 369.988 50.3156 371.404 51.2L373.523 47.808ZM368.09 45.1399C365.965 44.3276 363.772 43.3879 361.51 42.3195L359.801 45.9365C362.147 47.0441 364.434 48.0244 366.661 48.8761L368.09 45.1399ZM361.51 42.3195C359.328 41.2894 357.268 40.0474 355.328 38.592L352.927 41.792C355.083 43.4086 357.375 44.7906 359.801 45.9365L361.51 42.3195ZM355.383 38.6352C353.606 37.2023 352.139 35.4515 350.98 33.3647L347.483 35.3073C348.884 37.8285 350.681 39.9817 352.872 41.7488L355.383 38.6352ZM351.011 33.4224C349.974 31.4039 349.408 28.855 349.408 25.696H345.408C345.408 29.321 346.057 32.5321 347.452 35.2496L351.011 33.4224ZM349.408 25.696C349.408 21.8984 350.235 18.7128 351.814 16.0636L348.377 14.0164C346.372 17.3832 345.408 21.3016 345.408 25.696H349.408ZM351.798 16.0902C353.452 13.4088 355.766 11.2829 358.793 9.71099L356.95 6.161C353.321 8.04505 350.451 10.6551 348.393 13.9898L351.798 16.0902ZM358.82 9.69694C361.845 8.068 365.383 7.1388 369.48 6.95806L369.303 2.96194C364.696 3.16519 360.554 4.21999 356.923 6.17505L358.82 9.69694ZM369.392 6.96C374.956 6.96 379.295 7.62003 382.502 8.84443L383.929 5.10756C380.096 3.64397 375.219 2.96 369.392 2.96V6.96ZM382.513 8.84865C385.976 10.1471 389.039 11.6823 391.715 13.4459L393.916 10.1061C390.96 8.15766 387.623 6.49291 383.918 5.10334L382.513 8.84865ZM391.023 10.888L385.743 21.544L389.328 23.32L394.608 12.664L391.023 10.888ZM403.568 76H401.568V78H403.568V76ZM403.568 0.255997V-1.744H401.568V0.255997H403.568ZM416.72 0.255997H418.72V-1.744H416.72V0.255997ZM416.72 42.496L414.724 42.6134L418.72 42.496H416.72ZM416.624 40.864L414.88 39.8855L414.593 40.3965L414.628 40.9814L416.624 40.864ZM422.864 34.528L423.887 36.2466L423.902 36.2377L423.917 36.2285L422.864 34.528ZM442.64 35.584L441.3 37.0688L441.319 37.0859L441.339 37.1025L442.64 35.584ZM446.768 44.608H448.768V44.5908L448.768 44.5735L446.768 44.608ZM446.768 76V78H448.768V76H446.768ZM433.328 76H431.328V78H433.328V76ZM433.328 49.6H435.328V49.5655L435.327 49.5311L433.328 49.6ZM431.792 45.184L430.214 46.4119L430.252 46.4608L430.293 46.5072L431.792 45.184ZM421.808 45.472L423.125 46.9772V46.9771L421.808 45.472ZM418.256 50.944L420.137 51.6233L418.256 50.944ZM417.008 76V78H419.008V76H417.008ZM405.568 76V0.255997H401.568V76H405.568ZM403.568 2.256H416.72V-1.744H403.568V2.256ZM414.72 0.255997V42.496H418.72V0.255997H414.72ZM418.717 42.3786L418.621 40.7466L414.628 40.9814L414.724 42.6134L418.717 42.3786ZM418.369 41.8425C419.662 39.5365 421.488 37.6748 423.887 36.2466L421.841 32.8094C418.865 34.5812 416.53 36.9435 414.88 39.8855L418.369 41.8425ZM423.917 36.2285C426.222 34.8016 429.133 34.032 432.752 34.032V30.032C428.564 30.032 424.883 30.9264 421.812 32.8275L423.917 36.2285ZM432.752 34.032C436.291 34.032 439.09 35.0737 441.3 37.0688L443.98 34.0992C440.943 31.3583 437.15 30.032 432.752 30.032V34.032ZM441.339 37.1025C443.569 39.0143 444.714 41.4706 444.769 44.6425L448.768 44.5735C448.695 40.3214 447.087 36.7617 443.942 34.0655L441.339 37.1025ZM444.768 44.608V76H448.768V44.608H444.768ZM446.768 74H433.328V78H446.768V74ZM435.328 76V49.6H431.328V76H435.328ZM435.327 49.5311C435.252 47.3439 434.636 45.3841 433.292 43.8608L430.293 46.5072C430.868 47.1599 431.277 48.1441 431.329 49.6689L435.327 49.5311ZM433.371 43.9561C431.938 42.1142 429.665 41.456 427.184 41.456V45.456C429.056 45.456 429.854 45.9498 430.214 46.4119L433.371 43.9561ZM427.184 41.456C424.654 41.456 422.393 42.3026 420.491 43.9668L423.125 46.9771C424.295 45.9534 425.619 45.456 427.184 45.456V41.456ZM420.491 43.9668C418.654 45.5746 417.299 47.7057 416.375 50.2647L420.137 51.6233C420.877 49.5743 421.891 48.0574 423.125 46.9772L420.491 43.9668ZM416.375 50.2647C415.449 52.8298 415.008 55.7233 415.008 58.912H419.008C419.008 56.0847 419.4 53.6662 420.137 51.6233L416.375 50.2647ZM415.008 58.912V76H419.008V58.912H415.008ZM417.008 74H403.568V78H417.008V74ZM460.28 42.976L458.568 41.9423L458.561 41.9542L458.554 41.9662L460.28 42.976ZM468.824 35.008L469.756 36.7778L469.768 36.7715L469.78 36.765L468.824 35.008ZM493.88 35.008L492.898 36.7503L492.91 36.7571L492.923 36.7638L493.88 35.008ZM501.944 42.976L500.19 43.936L500.197 43.9487L500.204 43.9612L501.944 42.976ZM501.944 66.112L500.196 65.1407L500.19 65.152L501.944 66.112ZM493.88 74.176L492.898 72.4337L493.88 74.176ZM468.824 74.464L467.93 76.2529L467.942 76.2591L468.824 74.464ZM460.376 66.688L458.664 67.7217L460.376 66.688ZM472.184 60.544L470.395 61.4384L470.402 61.4516L470.409 61.4646L472.184 60.544ZM475.832 64.672L474.723 66.3361L475.832 64.672ZM486.488 64.672L485.379 63.0079V63.0079L486.488 64.672ZM490.04 60.544L491.842 61.4116L491.848 61.399L491.854 61.3862L490.04 60.544ZM490.04 48.64L488.238 49.5076L490.04 48.64ZM486.488 44.512L485.379 46.1761V46.1761L486.488 44.512ZM475.832 44.512L474.723 42.8479V42.8479L475.832 44.512ZM472.184 48.64L470.409 47.7194V47.7194L472.184 48.64ZM459.304 54.496C459.304 50.5295 460.218 47.0438 462.007 43.9858L458.554 41.9662C456.375 45.6922 455.304 49.8865 455.304 54.496H459.304ZM461.992 44.0097C463.844 40.9426 466.417 38.5353 469.756 36.7778L467.893 33.2382C463.936 35.3207 460.812 38.2254 458.568 41.9423L461.992 44.0097ZM469.78 36.765C473.096 34.9617 476.951 34.032 481.4 34.032V30.032C476.378 30.032 471.849 31.0863 467.869 33.251L469.78 36.765ZM481.4 34.032C485.921 34.032 489.73 34.9644 492.898 36.7503L494.862 33.2657C490.991 31.0836 486.48 30.032 481.4 30.032V34.032ZM492.923 36.7638C496.119 38.5075 498.525 40.893 500.19 43.936L503.699 42.016C501.652 38.275 498.681 35.3485 494.838 33.2522L492.923 36.7638ZM500.204 43.9612C501.937 47.0233 502.824 50.5178 502.824 54.496H506.824C506.824 49.8982 505.792 45.7127 503.685 41.9908L500.204 43.9612ZM502.824 54.496C502.824 58.4737 501.937 62.0066 500.196 65.1407L503.693 67.0833C505.791 63.3054 506.824 59.0943 506.824 54.496H502.824ZM500.19 65.152C498.521 68.201 496.108 70.6245 492.898 72.4337L494.862 75.9183C498.692 73.7595 501.655 70.807 503.699 67.072L500.19 65.152ZM492.898 72.4337C489.737 74.2154 485.867 75.152 481.208 75.152V79.152C486.405 79.152 490.983 78.1046 494.862 75.9183L492.898 72.4337ZM481.208 75.152C476.865 75.152 473.045 74.3091 469.706 72.6689L467.942 76.2591C471.9 78.2029 476.336 79.152 481.208 79.152V75.152ZM469.719 72.6751C466.469 71.0504 463.938 68.7184 462.088 65.6543L458.664 67.7217C460.91 71.4416 464.011 74.2936 467.93 76.2529L469.719 72.6751ZM462.088 65.6543C460.263 62.6303 459.304 58.9392 459.304 54.496H455.304C455.304 59.5248 456.394 63.9617 458.664 67.7217L462.088 65.6543ZM468.84 54.592C468.84 57.0512 469.349 59.3453 470.395 61.4384L473.973 59.6496C473.228 58.1587 472.84 56.4848 472.84 54.592H468.84ZM470.409 61.4646C471.452 63.4759 472.89 65.1143 474.723 66.3361L476.942 63.0079C475.702 62.1817 474.709 61.0681 473.96 59.6234L470.409 61.4646ZM474.723 66.3361C476.601 67.5882 478.718 68.208 481.016 68.208V64.208C479.474 64.208 478.135 63.8038 476.942 63.0079L474.723 66.3361ZM481.016 68.208C483.465 68.208 485.688 67.6095 487.598 66.3361L485.379 63.0079C484.217 63.7825 482.792 64.208 481.016 64.208V68.208ZM487.598 66.3361C489.444 65.1055 490.861 63.4492 491.842 61.4116L488.238 59.6764C487.555 61.0948 486.605 62.1905 485.379 63.0079L487.598 66.3361ZM491.854 61.3862C492.821 59.3046 493.288 57.0291 493.288 54.592H489.288C489.288 56.5069 488.924 58.1994 488.226 59.7018L491.854 61.3862ZM493.288 54.592C493.288 52.1018 492.825 49.8129 491.842 47.7724L488.238 49.5076C488.92 50.9231 489.288 52.6022 489.288 54.592H493.288ZM491.842 47.7724C490.861 45.7348 489.444 44.0785 487.598 42.8479L485.379 46.1761C486.605 46.9935 487.555 48.0892 488.238 49.5076L491.842 47.7724ZM487.598 42.8479C485.688 41.5745 483.465 40.976 481.016 40.976V44.976C482.792 44.976 484.217 45.4015 485.379 46.1761L487.598 42.8479ZM481.016 40.976C478.718 40.976 476.601 41.5958 474.723 42.8479L476.942 46.1761C478.135 45.3802 479.474 44.976 481.016 44.976V40.976ZM474.723 42.8479C472.89 44.0697 471.452 45.7081 470.409 47.7194L473.96 49.5606C474.709 48.1159 475.702 47.0023 476.942 46.1761L474.723 42.8479ZM470.409 47.7194C469.344 49.772 468.84 52.0801 468.84 54.592H472.84C472.84 52.6239 473.232 50.964 473.96 49.5606L470.409 47.7194ZM543.958 34.048L545.797 33.2631L545.279 32.048H543.958V34.048ZM553.174 55.648L553.327 57.6421L556.108 57.4282L555.013 54.8631L553.174 55.648ZM550.678 55.84L548.802 55.1459L547.719 58.0735L550.831 57.8341L550.678 55.84ZM558.742 34.048V32.048H557.349L556.866 33.3539L558.742 34.048ZM571.798 34.048L573.638 34.831L574.822 32.048H571.798V34.048ZM552.886 78.496L551.085 79.3655L553.001 83.3343L554.726 79.279L552.886 78.496ZM539.446 50.656L541.247 49.7865L539.364 45.8872L537.616 49.8484L539.446 50.656ZM527.158 78.496L525.32 79.2858L527.133 83.5042L528.987 79.3036L527.158 78.496ZM508.054 34.048V32.048H505.017L506.216 34.8378L508.054 34.048ZM521.11 34.048L522.943 33.2483L522.419 32.048H521.11V34.048ZM531.286 57.376L530.997 59.3551L534.558 59.8743L533.119 56.5763L531.286 57.376ZM526.678 56.704L524.855 55.8808L523.762 58.3L526.389 58.6831L526.678 56.704ZM534.742 38.848L536.565 39.6712L536.94 38.8404L536.559 38.0122L534.742 38.848ZM532.534 34.048V32.048H529.412L530.717 34.8838L532.534 34.048ZM542.118 34.8329L551.334 56.4329L555.013 54.8631L545.797 33.2631L542.118 34.8329ZM553.02 53.6539L550.524 53.8459L550.831 57.8341L553.327 57.6421L553.02 53.6539ZM552.553 56.5341L560.617 34.7421L556.866 33.3539L548.802 55.1459L552.553 56.5341ZM558.742 36.048H571.798V32.048H558.742V36.048ZM569.957 33.265L551.045 77.713L554.726 79.279L573.638 34.831L569.957 33.265ZM554.687 77.6265L541.247 49.7865L537.645 51.5255L551.085 79.3655L554.687 77.6265ZM537.616 49.8484L525.328 77.6884L528.987 79.3036L541.275 51.4636L537.616 49.8484ZM528.995 77.7062L509.891 33.2582L506.216 34.8378L525.32 79.2858L528.995 77.7062ZM508.054 36.048H521.11V32.048H508.054V36.048ZM519.277 34.8477L529.453 58.1757L533.119 56.5763L522.943 33.2483L519.277 34.8477ZM531.574 55.3969L526.966 54.7249L526.389 58.6831L530.997 59.3551L531.574 55.3969ZM528.5 57.5272L536.565 39.6712L532.919 38.0248L524.855 55.8808L528.5 57.5272ZM536.559 38.0122L534.351 33.2122L530.717 34.8838L532.925 39.6838L536.559 38.0122ZM532.534 36.048H543.958V32.048H532.534V36.048ZM613.841 72.256L615.083 73.823L616.653 72.5784L615.406 71.011L613.841 72.256ZM606.833 75.808L606.226 73.9021L606.213 73.9063L606.833 75.808ZM586.096 74.56L585.189 76.3423L585.208 76.3521L585.228 76.3615L586.096 74.56ZM577.841 66.976L576.108 67.9754L576.12 67.9953L576.131 68.0148L577.841 66.976ZM578.128 43.072L579.808 44.1585L579.812 44.1511L579.817 44.1436L578.128 43.072ZM586.385 35.488L585.49 33.6991L585.483 33.7025L585.477 33.7059L586.385 35.488ZM607.024 34.432L606.327 36.3064L606.334 36.309L606.341 36.3116L607.024 34.432ZM614.224 38.464L615.82 39.6697L616.966 38.1531L615.51 36.9316L614.224 38.464ZM607.696 47.104L606.461 48.6766L608.064 49.9359L609.292 48.3097L607.696 47.104ZM603.953 44.992L603.058 46.7809L603.102 46.8028L603.147 46.8226L603.953 44.992ZM593.393 45.28L592.333 43.584V43.584L593.393 45.28ZM589.745 49.216L587.984 48.2678L589.745 49.216ZM589.841 60.64L591.589 59.6687L589.841 60.64ZM593.776 64.768L592.728 66.4713L592.766 66.4947L592.805 66.5163L593.776 64.768ZM603.857 65.632L604.459 67.5392L604.488 67.5299L604.517 67.5197L603.857 65.632ZM607.12 63.808L608.686 62.563L607.394 60.9393L605.819 62.2895L607.12 63.808ZM612.598 70.689C610.972 71.9783 608.866 73.0621 606.226 73.9021L607.439 77.7139C610.431 76.7619 612.997 75.4777 615.083 73.823L612.598 70.689ZM606.213 73.9063C603.646 74.7421 601.135 75.152 598.672 75.152V79.152C601.586 79.152 604.515 78.6658 607.452 77.7097L606.213 73.9063ZM598.672 75.152C594.112 75.152 590.228 74.3316 586.965 72.7585L585.228 76.3615C589.133 78.2444 593.633 79.152 598.672 79.152V75.152ZM587.004 72.7777C583.803 71.1482 581.334 68.8725 579.55 65.9372L576.131 68.0148C578.315 71.6075 581.35 74.3878 585.189 76.3423L587.004 72.7777ZM579.573 65.9766C577.862 63.0118 576.961 59.3727 576.961 54.976H572.961C572.961 59.9233 573.979 64.2842 576.108 67.9754L579.573 65.9766ZM576.961 54.976C576.961 50.6109 577.944 47.0386 579.808 44.1585L576.449 41.9855C574.089 45.6334 572.961 49.9971 572.961 54.976H576.961ZM579.817 44.1436C581.744 41.1069 584.231 38.8295 587.292 37.2701L585.477 33.7059C581.754 35.6025 578.737 38.3811 576.44 42.0003L579.817 44.1436ZM587.279 37.2769C590.464 35.6844 593.774 34.896 597.232 34.896V30.896C593.139 30.896 589.217 31.8356 585.49 33.6991L587.279 37.2769ZM597.232 34.896C600.835 34.896 603.852 35.3854 606.327 36.3064L607.722 32.5576C604.693 31.4306 601.182 30.896 597.232 30.896V34.896ZM606.341 36.3116C608.972 37.2682 611.16 38.5039 612.939 39.9964L615.51 36.9316C613.321 35.0961 610.709 33.6438 607.708 32.5524L606.341 36.3116ZM612.629 37.2583L606.101 45.8983L609.292 48.3097L615.82 39.6697L612.629 37.2583ZM608.932 45.5314C607.854 44.6841 606.439 43.9011 604.758 43.1614L603.147 46.8226C604.666 47.4909 605.747 48.1159 606.461 48.6766L608.932 45.5314ZM604.847 43.2031C602.977 42.268 600.833 41.84 598.481 41.84V45.84C600.352 45.84 601.856 46.18 603.058 46.7809L604.847 43.2031ZM598.481 41.84C596.259 41.84 594.195 42.4202 592.333 43.584L594.453 46.976C595.662 46.2198 596.99 45.84 598.481 45.84V41.84ZM592.333 43.584C590.489 44.7363 589.037 46.3117 587.984 48.2678L591.505 50.1642C592.244 48.7923 593.224 47.7437 594.453 46.976L592.333 43.584ZM587.984 48.2678C586.908 50.2647 586.401 52.5195 586.401 54.976H590.401C590.401 53.0805 590.789 51.4953 591.505 50.1642L587.984 48.2678ZM586.401 54.976C586.401 57.3511 586.961 59.5752 588.092 61.6113L591.589 59.6687C590.8 58.2488 590.401 56.6969 590.401 54.976H586.401ZM588.092 61.6113C589.217 63.6356 590.768 65.2652 592.728 66.4713L594.825 63.0647C593.457 62.2228 592.384 61.1004 591.589 59.6687L588.092 61.6113ZM592.805 66.5163C594.876 67.6669 597.237 68.208 599.825 68.208V64.208C597.804 64.208 596.133 63.7891 594.748 63.0197L592.805 66.5163ZM599.825 68.208C601.47 68.208 603.021 67.9933 604.459 67.5392L603.254 63.7248C602.26 64.0387 601.123 64.208 599.825 64.208V68.208ZM604.517 67.5197C605.997 67.0017 607.311 66.2786 608.422 65.3265L605.819 62.2895C605.138 62.8734 604.276 63.3663 603.196 63.7443L604.517 67.5197ZM605.555 65.053L612.275 73.501L615.406 71.011L608.686 62.563L605.555 65.053ZM631.17 74.848L630.261 76.6295L630.283 76.6405L630.305 76.651L631.17 74.848ZM631.362 34.816L632.381 36.5372L632.394 36.5295L632.406 36.5217L631.362 34.816ZM650.754 34.048L649.645 35.7121L649.673 35.7314L649.703 35.7496L650.754 34.048ZM656.13 38.56L658.016 39.2256L658.398 38.1439L657.657 37.2681L656.13 38.56ZM655.554 40.192L653.594 39.7939L657.44 40.8576L655.554 40.192ZM656.802 34.048V32.048H655.167L654.842 33.6499L656.802 34.048ZM669.282 34.048H671.282V32.048H669.282V34.048ZM669.282 76V78H671.282V76H669.282ZM655.842 76H653.842V78H655.842V76ZM655.842 66.88L657.72 66.1915L653.842 66.88H655.842ZM656.898 69.76V71.76H659.762L658.776 69.0715L656.898 69.76ZM655.746 70.912L657.226 72.2573L657.255 72.2255L657.282 72.1924L655.746 70.912ZM652.866 73.504L654.105 75.0738L654.115 75.0657L652.866 73.504ZM648.258 76L647.549 74.13L647.509 74.145L647.47 74.1617L648.258 76ZM649.986 65.536L650.647 67.4237L650.688 67.4092L650.729 67.393L649.986 65.536ZM653.346 63.424L654.711 64.8861L654.736 64.8626L654.76 64.8382L653.346 63.424ZM655.842 59.872L657.631 60.7664L657.842 60.3441V59.872H655.842ZM655.842 49.6H657.842V49.2477L657.722 48.9165L655.842 49.6ZM653.538 46.048L652.124 47.4622L652.147 47.485L652.17 47.5071L653.538 46.048ZM649.89 43.744L649.133 45.5951L649.169 45.6101L649.207 45.6236L649.89 43.744ZM639.81 44.416L640.839 46.131L640.849 46.1252L640.858 46.1193L639.81 44.416ZM635.97 48.448L637.718 49.4193L635.97 48.448ZM636.066 60.448L634.33 61.4403L636.066 60.448ZM640.098 64.672L639.05 66.3753L639.064 66.3841L639.078 66.3926L640.098 64.672ZM641.826 75.152C638.191 75.152 634.939 74.4388 632.035 73.045L630.305 76.651C633.801 78.3292 637.653 79.152 641.826 79.152V75.152ZM632.079 73.0665C629.315 71.6561 627.097 69.5114 625.421 66.5634L621.943 68.5406C623.979 72.1206 626.753 74.8399 630.261 76.6295L632.079 73.0665ZM625.421 66.5634C623.785 63.6874 622.898 59.897 622.898 55.072H618.898C618.898 60.359 619.867 64.8886 621.943 68.5406L625.421 66.5634ZM622.898 55.072C622.898 50.6087 623.801 46.8605 625.526 43.7553L622.03 41.8127C619.915 45.6195 618.898 50.0633 618.898 55.072H622.898ZM625.526 43.7553C627.289 40.5824 629.576 38.1972 632.381 36.5372L630.343 33.0948C626.876 35.1468 624.107 38.0736 622.03 41.8127L625.526 43.7553ZM632.406 36.5217C635.243 34.7852 638.211 33.936 641.346 33.936V29.936C637.441 29.936 633.753 31.0068 630.318 33.1103L632.406 36.5217ZM641.346 33.936C645.339 33.936 648.01 34.6225 649.645 35.7121L651.863 32.3839C649.274 30.6575 645.673 29.936 641.346 29.936V33.936ZM649.703 35.7496C651.73 37.0016 653.352 38.3737 654.603 39.8519L657.657 37.2681C656.091 35.4183 654.13 33.7824 651.805 32.3464L649.703 35.7496ZM654.244 37.8944L653.668 39.5264L657.44 40.8576L658.016 39.2256L654.244 37.8944ZM657.514 40.5901L658.762 34.4461L654.842 33.6499L653.594 39.7939L657.514 40.5901ZM656.802 36.048H669.282V32.048H656.802V36.048ZM667.282 34.048V76H671.282V34.048H667.282ZM669.282 74H655.842V78H669.282V74ZM657.842 76V66.88H653.842V76H657.842ZM653.964 67.5685L655.02 70.4485L658.776 69.0715L657.72 66.1915L653.964 67.5685ZM656.898 67.76C656.429 67.76 656.081 67.9205 655.944 67.9891C655.774 68.074 655.64 68.1674 655.554 68.232C655.38 68.3624 655.224 68.5101 655.1 68.6338C654.843 68.8901 654.542 69.2328 654.21 69.6316L657.282 72.1924C657.59 71.8232 657.801 71.5899 657.928 71.4622C657.997 71.3939 658 71.3976 657.954 71.432C657.932 71.4486 657.854 71.506 657.732 71.5669C657.669 71.5985 657.572 71.6424 657.446 71.6802C657.323 71.717 657.134 71.76 656.898 71.76V67.76ZM654.266 69.5667C653.73 70.1564 652.864 70.9444 651.617 71.9423L654.115 75.0657C655.428 74.0156 656.482 73.0756 657.226 72.2573L654.266 69.5667ZM651.627 71.9342C650.609 72.7379 649.265 73.4791 647.549 74.13L648.967 77.87C650.963 77.1129 652.691 76.1901 654.105 75.0738L651.627 71.9342ZM647.47 74.1617C645.986 74.7976 644.124 75.152 641.826 75.152V79.152C644.52 79.152 646.946 78.7384 649.046 77.8383L647.47 74.1617ZM645.666 68.208C647.451 68.208 649.12 67.958 650.647 67.4237L649.325 63.6483C648.292 64.0099 647.081 64.208 645.666 64.208V68.208ZM650.729 67.393C652.227 66.7936 653.561 65.9594 654.711 64.8861L651.981 61.9619C651.211 62.6806 650.305 63.2544 649.243 63.679L650.729 67.393ZM654.76 64.8382C655.894 63.7042 656.846 62.3367 657.631 60.7664L654.053 58.9776C653.43 60.2233 652.718 61.2238 651.932 62.0098L654.76 64.8382ZM657.842 59.872V49.6H653.842V59.872H657.842ZM657.722 48.9165C657.11 47.2338 656.174 45.7781 654.906 44.5889L652.17 47.5071C652.95 48.2379 653.55 49.1502 653.962 50.2835L657.722 48.9165ZM654.952 44.6338C653.714 43.3959 652.246 42.4727 650.573 41.8644L649.207 45.6236C650.35 46.0393 651.314 46.6521 652.124 47.4622L654.952 44.6338ZM650.647 41.8929C648.968 41.2061 647.139 40.88 645.186 40.88V44.88C646.689 44.88 647.996 45.1299 649.133 45.5951L650.647 41.8929ZM645.186 40.88C642.889 40.88 640.735 41.4983 638.762 42.7127L640.858 46.1193C642.213 45.2857 643.643 44.88 645.186 44.88V40.88ZM638.781 42.701C636.862 43.8523 635.342 45.4609 634.222 47.4767L637.718 49.4193C638.518 47.9791 639.558 46.8997 640.839 46.131L638.781 42.701ZM634.222 47.4767C633.076 49.5396 632.53 51.8661 632.53 54.4H636.53C636.53 52.4539 636.944 50.8124 637.718 49.4193L634.222 47.4767ZM632.53 54.4C632.53 56.9575 633.118 59.3206 634.33 61.4403L637.802 59.4557C636.966 57.9914 636.53 56.3225 636.53 54.4H632.53ZM634.33 61.4403C635.51 63.5063 637.084 65.1657 639.05 66.3753L641.146 62.9687C639.784 62.1302 638.67 60.9737 637.802 59.4557L634.33 61.4403ZM639.078 66.3926C641.111 67.5971 643.319 68.208 645.666 68.208V64.208C644.045 64.208 642.541 63.7949 641.118 62.9514L639.078 66.3926ZM687.067 75.04L686.303 76.8885L686.31 76.8914L686.317 76.8942L687.067 75.04ZM679.579 69.952L677.981 68.7487L676.967 70.0952L678.122 71.3227L679.579 69.952ZM685.147 62.56L686.49 61.078L684.867 59.6073L683.549 61.3567L685.147 62.56ZM690.811 66.592L689.943 68.394L689.983 68.413L690.023 68.4303L690.811 66.592ZM698.491 67.456L698.94 69.4048L698.991 69.3932L699.04 69.3791L698.491 67.456ZM700.603 66.4L701.92 67.9052L701.97 67.8613L702.017 67.8142L700.603 66.4ZM700.027 61.888L698.807 63.4732L698.835 63.4949L698.864 63.5155L700.027 61.888ZM696.763 60.352L696.13 62.2494L696.172 62.2631L696.213 62.275L696.763 60.352ZM692.443 59.008L691.839 60.9147L691.861 60.9216L691.883 60.928L692.443 59.008ZM684.091 53.728L682.454 54.8779L682.472 54.9032L682.491 54.928L684.091 53.728ZM683.227 39.712L681.459 38.7762L681.454 38.7861L681.449 38.7961L683.227 39.712ZM688.603 34.336L689.605 36.0669L689.612 36.0628L689.619 36.0587L688.603 34.336ZM707.131 33.184L706.575 35.1051L707.131 33.184ZM714.043 36.64L715.722 37.7257L716.745 36.1442L715.228 35.0287L714.043 36.64ZM708.955 44.512L707.715 46.0818L709.441 47.4441L710.634 45.5977L708.955 44.512ZM704.827 42.112L703.964 43.9163L704.01 43.9384L704.057 43.9582L704.827 42.112ZM700.699 40.96L700.588 42.957L700.599 42.9575L700.699 40.96ZM697.723 41.344L697.005 39.4773L696.979 39.4872L696.953 39.4978L697.723 41.344ZM695.899 42.592L694.394 41.275V41.275L695.899 42.592ZM695.227 44.224L697.224 44.3291L697.227 44.2766V44.224H695.227ZM696.571 47.104L695.388 48.7168L695.413 48.7348L695.438 48.7521L696.571 47.104ZM700.411 48.736L699.926 50.6763L700.411 48.736ZM704.923 50.08L704.266 51.969L704.296 51.9795L704.326 51.989L704.923 50.08ZM710.203 52.672L709.014 54.2803L710.203 52.672ZM713.563 56.608L711.774 57.5024L711.797 57.5479L711.822 57.5921L713.563 56.608ZM712.795 69.28L711.067 68.2723L711.063 68.28L711.058 68.2877L712.795 69.28ZM706.843 74.752L705.915 72.9803L705.906 72.985L705.897 72.9897L706.843 74.752ZM696.763 74.864C693.547 74.864 690.571 74.2993 687.816 73.1858L686.317 76.8942C689.579 78.2127 693.067 78.864 696.763 78.864V74.864ZM687.83 73.1915C685.131 72.0765 682.876 70.5372 681.035 68.5813L678.122 71.3227C680.377 73.7188 683.115 75.5715 686.303 76.8885L687.83 73.1915ZM681.176 71.1553L686.744 63.7633L683.549 61.3567L677.981 68.7487L681.176 71.1553ZM683.804 64.042C685.937 65.9753 687.984 67.4509 689.943 68.394L691.678 64.79C690.181 64.0691 688.452 62.8567 686.49 61.078L683.804 64.042ZM690.023 68.4303C691.974 69.2666 693.849 69.744 695.611 69.744V65.744C694.556 65.744 693.231 65.4534 691.599 64.7537L690.023 68.4303ZM695.611 69.744C696.811 69.744 697.927 69.6386 698.94 69.4048L698.041 65.5072C697.39 65.6574 696.586 65.744 695.611 65.744V69.744ZM699.04 69.3791C700.121 69.0703 701.12 68.6053 701.92 67.9052L699.286 64.8948C699.062 65.0907 698.653 65.3297 697.941 65.533L699.04 69.3791ZM702.017 67.8142C702.929 66.9026 703.371 65.7427 703.371 64.48H699.371C699.371 64.7533 699.301 64.8734 699.189 64.9858L702.017 67.8142ZM703.371 64.48C703.371 62.7369 702.603 61.2706 701.189 60.2605L698.864 63.5155C699.242 63.7854 699.371 64.0471 699.371 64.48H703.371ZM701.246 60.3028C700.16 59.4671 698.823 58.8606 697.312 58.429L696.213 62.275C697.391 62.6114 698.23 63.0289 698.807 63.4732L701.246 60.3028ZM697.395 58.4546C696.024 57.9977 694.56 57.5422 693.003 57.088L691.883 60.928C693.398 61.3698 694.813 61.8103 696.13 62.2494L697.395 58.4546ZM693.047 57.1013C689.45 55.9625 687.086 54.389 685.691 52.528L682.491 54.928C684.551 57.675 687.755 59.6215 691.839 60.9147L693.047 57.1013ZM685.727 52.5781C684.287 50.5284 683.595 48.3664 683.595 46.048H679.595C679.595 49.2336 680.567 52.1916 682.454 54.8779L685.727 52.5781ZM683.595 46.048C683.595 44.2926 684.044 42.4924 685.005 40.6279L681.449 38.7961C680.233 41.1556 679.595 43.5794 679.595 46.048H683.595ZM684.994 40.6478C685.947 38.8483 687.451 37.3141 689.605 36.0669L687.601 32.6051C684.891 34.1739 682.81 36.2237 681.459 38.7762L684.994 40.6478ZM689.619 36.0587C691.718 34.8207 694.536 34.128 698.203 34.128V30.128C694.061 30.128 690.48 30.9073 687.587 32.6133L689.619 36.0587ZM698.203 34.128C701.602 34.128 704.378 34.4694 706.575 35.1051L707.687 31.2629C705.019 30.4906 701.843 30.128 698.203 30.128V34.128ZM706.575 35.1051C708.766 35.7394 710.859 36.7814 712.858 38.2513L715.228 35.0287C712.875 33.2986 710.36 32.0366 707.687 31.2629L706.575 35.1051ZM712.363 35.5543L707.275 43.4263L710.634 45.5977L715.722 37.7257L712.363 35.5543ZM710.194 42.9422C708.825 41.861 707.288 40.9709 705.596 40.2658L704.057 43.9582C705.437 44.5331 706.653 45.243 707.715 46.0818L710.194 42.9422ZM705.69 40.3077C704.041 39.5194 702.405 39.0428 700.799 38.9625L700.599 42.9575C701.553 43.0052 702.668 43.2966 703.964 43.9163L705.69 40.3077ZM700.81 38.9631C699.455 38.8878 698.166 39.0306 697.005 39.4773L698.441 43.2107C698.943 43.0174 699.638 42.9042 700.588 42.9569L700.81 38.9631ZM696.953 39.4978C695.965 39.9098 695.083 40.487 694.394 41.275L697.404 43.909C697.61 43.673 697.945 43.4182 698.492 43.1902L696.953 39.4978ZM694.394 41.275C693.688 42.0819 693.227 43.0784 693.227 44.224H697.227C697.227 44.2176 697.214 44.1261 697.404 43.909L694.394 41.275ZM693.229 44.1189C693.131 45.9896 693.869 47.6032 695.388 48.7168L697.753 45.4912C697.352 45.1968 697.194 44.8904 697.224 44.3291L693.229 44.1189ZM695.438 48.7521C696.704 49.6228 698.219 50.2495 699.926 50.6763L700.896 46.7957C699.531 46.4545 698.485 45.9932 697.704 45.4559L695.438 48.7521ZM699.926 50.6763C701.405 51.046 702.851 51.477 704.266 51.969L705.58 48.191C704.05 47.659 702.489 47.194 700.896 46.7957L699.926 50.6763ZM704.326 51.989C706.197 52.5737 707.749 53.3455 709.014 54.2803L711.392 51.0636C709.712 49.8225 707.744 48.8663 705.519 48.171L704.326 51.989ZM709.014 54.2803C710.25 55.1937 711.156 56.2668 711.774 57.5024L715.352 55.7136C714.433 53.8772 713.1 52.3263 711.392 51.0636L709.014 54.2803ZM711.822 57.5921C712.447 58.6979 712.811 60.1321 712.811 61.984H716.811C716.811 59.6119 716.343 57.4621 715.304 55.6239L711.822 57.5921ZM712.811 61.984C712.811 64.1747 712.241 66.2607 711.067 68.2723L714.522 70.2877C716.037 67.6913 716.811 64.9133 716.811 61.984H712.811ZM711.058 68.2877C709.999 70.1413 708.325 71.7178 705.915 72.9803L707.771 76.5237C710.737 74.9702 713.03 72.8988 714.531 70.2723L711.058 68.2877ZM705.897 72.9897C703.652 74.1941 700.647 74.864 696.763 74.864V78.864C701.071 78.864 704.785 78.1259 707.788 76.5143L705.897 72.9897ZM733.652 74.272L732.695 76.0278L732.701 76.0314L732.708 76.035L733.652 74.272ZM725.588 66.304L723.834 67.264L725.588 66.304ZM734.804 35.104L735.76 36.861L735.772 36.8545L735.783 36.848L734.804 35.104ZM761.78 37.312L760.429 38.7863L760.442 38.798L760.455 38.8095L761.78 37.312ZM769.364 52.384L769.97 54.2901L771.635 53.7611L771.334 52.0397L769.364 52.384ZM736.724 62.752L734.872 63.5074L735.57 65.2172L737.33 64.6581L736.724 62.752ZM733.748 55.456L733.109 53.561L731.093 54.2412L731.896 56.2114L733.748 55.456ZM757.364 47.488L758.182 49.313L756.725 45.593L757.364 47.488ZM754.58 48.736L752.669 49.3242L753.334 51.4864L755.398 50.561L754.58 48.736ZM751.796 44.416L750.382 45.8302L750.417 45.8655L750.454 45.8991L751.796 44.416ZM740.66 43.936L741.7 45.6444L741.71 45.6383L741.72 45.632L740.66 43.936ZM737.204 47.872L735.402 47.0044L735.395 47.0191L735.388 47.0339L737.204 47.872ZM737.492 60.448L735.729 61.3924L735.737 61.4059L735.744 61.4193L737.492 60.448ZM741.428 64.384L740.48 66.1449L741.428 64.384ZM751.22 64.96L750.537 63.0804L750.522 63.0856L750.508 63.091L751.22 64.96ZM755.348 62.944L757.066 61.9199L756.025 60.173L754.296 61.2435L755.348 62.944ZM761.3 72.928L762.293 74.6645L764.061 73.6537L763.018 71.9039L761.3 72.928ZM754.004 76L753.442 74.0805L753.43 74.0844L754.004 76ZM746.708 75.152C741.834 75.152 737.824 74.2382 734.597 72.509L732.708 76.035C736.648 78.1458 741.342 79.152 746.708 79.152V75.152ZM734.61 72.5162C731.413 70.7725 729.008 68.387 727.343 65.344L723.834 67.264C725.881 71.005 728.851 73.9315 732.695 76.0278L734.61 72.5162ZM727.343 65.344C725.669 62.2859 724.804 58.7207 724.804 54.592H720.804C720.804 59.2953 721.795 63.5381 723.834 67.264L727.343 65.344ZM724.804 54.592C724.804 50.7315 725.793 47.3017 727.752 44.2479L724.385 42.0881C721.992 45.8183 720.804 50.0045 720.804 54.592H724.804ZM727.752 44.2479C729.74 41.1481 732.398 38.6892 735.76 36.861L733.849 33.347C729.914 35.4868 726.748 38.4039 724.385 42.0881L727.752 44.2479ZM735.783 36.848C739.111 34.9797 742.834 34.032 746.996 34.032V30.032C742.198 30.032 737.793 31.1323 733.825 33.36L735.783 36.848ZM746.996 34.032C752.595 34.032 757.014 35.6565 760.429 38.7863L763.132 35.8377C758.866 31.9275 753.43 30.032 746.996 30.032V34.032ZM760.455 38.8095C763.933 41.889 766.298 46.4543 767.394 52.7283L771.334 52.0397C770.127 45.1297 767.435 39.647 763.106 35.8145L760.455 38.8095ZM768.759 50.4779L736.119 60.8459L737.33 64.6581L769.97 54.2901L768.759 50.4779ZM738.576 61.9966L735.6 54.7006L731.896 56.2114L734.872 63.5074L738.576 61.9966ZM734.388 57.351L758.004 49.383L756.725 45.593L733.109 53.561L734.388 57.351ZM756.546 45.663L753.762 46.911L755.398 50.561L758.182 49.313L756.546 45.663ZM756.492 48.1478C755.869 46.1252 754.738 44.3801 753.138 42.9329L750.454 45.8991C751.543 46.8839 752.267 48.0188 752.669 49.3242L756.492 48.1478ZM753.21 43.0018C751.415 41.2062 748.856 40.496 745.94 40.496V44.496C748.273 44.496 749.618 45.0658 750.382 45.8302L753.21 43.0018ZM745.94 40.496C743.618 40.496 741.484 41.0626 739.6 42.24L741.72 45.632C742.908 44.8894 744.294 44.496 745.94 44.496V40.496ZM739.62 42.2276C737.782 43.3466 736.382 44.9691 735.402 47.0044L739.006 48.7396C739.69 47.3189 740.595 46.3173 741.7 45.6444L739.62 42.2276ZM735.388 47.0339C734.472 49.0191 734.052 51.3028 734.052 53.824H738.052C738.052 51.7372 738.4 50.0529 739.02 48.7101L735.388 47.0339ZM734.052 53.824C734.052 56.6844 734.575 59.2377 735.729 61.3924L739.255 59.5036C738.49 58.0743 738.052 56.2116 738.052 53.824H734.052ZM735.744 61.4193C736.881 63.4654 738.463 65.0591 740.48 66.1449L742.376 62.6231C741.065 61.9169 740.024 60.8866 739.241 59.4767L735.744 61.4193ZM740.48 66.1449C742.459 67.2108 744.646 67.728 746.996 67.728V63.728C745.251 63.728 743.725 63.3492 742.376 62.6231L740.48 66.1449ZM746.996 67.728C748.706 67.728 750.355 67.4296 751.932 66.829L750.508 63.091C749.397 63.5144 748.231 63.728 746.996 63.728V67.728ZM751.904 66.8396C753.448 66.2782 754.947 65.5448 756.401 64.6445L754.296 61.2435C753.062 62.0072 751.809 62.6178 750.537 63.0804L751.904 66.8396ZM753.63 63.9681L759.582 73.9521L763.018 71.9039L757.066 61.9199L753.63 63.9681ZM760.308 71.1915C758.212 72.3894 755.925 73.3539 753.442 74.0805L754.566 77.9195C757.331 77.1101 759.909 76.0266 762.293 74.6645L760.308 71.1915ZM753.43 74.0844C751.027 74.8051 748.789 75.152 746.708 75.152V79.152C749.235 79.152 751.862 78.7309 754.579 77.9156L753.43 74.0844Z" fill="#F1F1F1"/>
</svg>
