<svg width="231" height="300" viewBox="0 0 231 300" fill="none" xmlns="http://www.w3.org/2000/svg">
<path d="M0 10C0 4.47716 4.47715 0 10 0H221C226.523 0 231 4.47715 231 10V184.5C231 248.289 179.289 300 115.5 300C51.7111 300 0 248.289 0 184.5V10Z" fill="#373737"/>
<path d="M54.6756 80.7275H152.962C154.874 80.7275 156.425 82.2772 156.425 84.1892V98.685H177.324C179.236 98.685 180.786 100.235 180.786 102.147V215.811C180.786 217.723 179.236 219.272 177.324 219.272H79.0383C77.1263 219.272 75.5749 217.723 75.5749 215.811V201.315H54.6756C52.7636 201.315 51.2139 199.765 51.2139 197.853V84.1892C51.2139 82.2772 52.7636 80.7275 54.6756 80.7275ZM156.425 105.61V197.853C156.425 199.765 154.874 201.315 152.962 201.315H82.5016V212.347H173.861V105.61H156.425ZM93.4184 135.244C92.5278 139.692 85.7654 138.34 86.6543 133.892C87.5483 129.444 90.1311 125.535 93.8477 122.954C93.6767 122.732 93.5123 122.504 93.3563 122.271C92.0062 120.257 91.2179 117.847 91.2179 115.267C91.2179 108.309 96.86 102.667 103.819 102.667C110.777 102.667 116.419 108.309 116.419 115.267C116.419 118.058 115.492 120.748 113.789 122.954C117.508 125.533 120.091 129.444 120.983 133.892C121.872 138.34 115.109 139.692 114.22 135.244C113.489 131.608 110.853 128.589 107.359 127.356C106.21 127.697 105.017 127.87 103.819 127.87C102.628 127.87 101.422 127.697 100.278 127.356C96.7845 128.589 94.148 131.606 93.4184 135.244ZM103.819 120.945C106.993 120.945 109.494 118.415 109.494 115.267C109.494 112.133 106.953 109.592 103.819 109.592C100.684 109.592 98.143 112.133 98.143 115.267C98.143 118.442 100.674 120.945 103.819 120.945ZM78.4127 154.302C73.8575 154.302 73.8575 147.377 78.4127 147.377H129.226C133.781 147.377 133.781 154.302 129.226 154.302H78.4127ZM78.4127 179.376C73.8575 179.376 73.8575 172.451 78.4127 172.451H129.226C133.781 172.451 133.781 179.376 129.226 179.376H78.4127ZM78.4127 166.839C73.8575 166.839 73.8575 159.914 78.4127 159.914H129.226C133.781 159.914 133.781 166.839 129.226 166.839H78.4127ZM149.498 87.6525H58.1389V194.39H149.498V87.6525Z" fill="white"/>
</svg>
